<?xml version="1.0" standalone="no"?>
<!DOCTYPE svg PUBLIC "-//W3C//DTD SVG 1.1//EN" "http://www.w3.org/Graphics/SVG/1.1/DTD/svg11.dtd" >
<svg xmlns="http://www.w3.org/2000/svg">
<metadata>Generated by IcoMoon</metadata>
<defs>
<font id="mathworks" horiz-adv-x="512">
<font-face units-per-em="512" ascent="480" descent="-32" />
<missing-glyph horiz-adv-x="512" />
<glyph unicode="&#x20;" d="" horiz-adv-x="256" />
<glyph unicode="&#xe600;" d="M502.176 78.816c-6.624 16.384-16.448 29.504-29.568 39.328-4.96 2.464-25.44 10.208-61.568 23.392-41.792 15.52-66.432 25.408-73.888 29.504-10.624 7.424-17.248 21.792-19.616 43.072l4.96 7.424c1.6 0.8 2.432 1.664 2.432 2.464 16.384 16.384 28.704 38.528 36.864 66.432 15.648 56.608 13.12 103.008-7.424 139.136-2.368 4.096-4.832 7.744-7.296 11.072-18.88 23.744-48 36.928-87.36 39.36h-6.112c-41.888-3.296-70.656-16.448-86.176-39.36-25.44-33.696-31.616-80.48-18.496-140.352 0.8-4.16 1.6-7.424 2.464-9.856 11.488-30.368 24.192-52.512 38.176-66.432 0.8-0.8 2.048-2.464 3.648-4.96 1.6-2.464 2.912-4.064 3.712-4.896 3.264-9.024-1.248-21.312-13.504-36.928-2.528-3.264-4.512-5.376-6.176-6.176-19.68-9.824-45.152-19.68-76.352-29.504-36.864-13.184-57.408-20.96-61.536-23.392-13.92-10.624-23.808-23.744-29.504-39.328-6.56-19.68-9.856-42.336-9.856-67.776v-3.584l3.712-2.56c25.44-24.608 109.504-36.896 252.224-36.896 144.448 0 228.544 11.872 252.352 35.712l3.712 3.712v3.584c-0.864 3.328-1.6 9.888-2.4 19.744-2.56 24.608-5.024 40.64-7.424 48.064z" />
<glyph unicode="&#xe601;" d="M512-19.008c-0.672-7.36-4.992-11.68-12.96-12.992h-77.824v38.016h-37.952v39.008h-37.888v38.016h-38.912v39.008h-33.92l-60.896 56.96c-23.968-8.672-42.24-12.992-54.88-12.992-41.92 0-78.816 15.328-110.752 45.984-23.296 24.032-37.92 52.672-43.904 85.984-7.968 52.672 6.656 98.016 43.904 136.032 30.592 29.984 67.2 45.312 109.76 45.984 43.232 0 80.8-15.328 112.736-45.984 10.624-10.688 19.584-23.040 26.944-37.024 25.28-46.656 26.624-94.016 4-141.984l178.624-177.984 24.896-26.016 9.024-70.016zM185.728 294.016c2.624 2.624 4.96 5.984 6.976 9.984 9.312 18.656 6.976 35.008-6.976 49.024-8 7.296-17.952 11.296-29.952 11.968-11.328 0-20.96-4-28.928-12-2.688-2.656-5.344-5.984-8-9.984-9.984-17.344-7.328-33.664 8-48.992 7.328-6.688 16.96-10.368 28.928-11.040 11.328 0 21.312 3.68 29.952 11.040z" />
<glyph unicode="&#xe602;" d="M416 192h-128v-128h-64v128h-128v64h128v128h64v-128h128z" />
<glyph unicode="&#xe603;" d="M256 480c-141.376 0-256-114.624-256-256s114.624-256 256-256 256 114.624 256 256-114.624 256-256 256zM256 0c-123.52 0-224 100.48-224 224s100.48 224 224 224 224-100.48 224-224-100.48-224-224-224zM288 352h-64v-96h-96v-64h96v-96h64v96h96v64h-96z" />
<glyph unicode="&#xe604;" d="M256 480c-141.408 0-256-114.592-256-256 0-141.376 114.592-256 256-256 141.376 0 256 114.624 256 256 0 141.408-114.624 256-256 256zM416 192h-128v-128h-64v128h-128v64h128v128h64v-128h128v-64z" />
<glyph unicode="&#xe605;" d="M0 480v-512h512v512h-512zM391.776 133.504l-45.248-45.248-90.528 90.496-90.496-90.496-45.248 45.248 90.496 90.496-90.528 90.496 45.248 45.248 90.528-90.496 90.496 90.496 45.248-45.248-90.496-90.496 90.528-90.496z" />
<glyph unicode="&#xe606;" d="M0 480v-512h512v512h-512zM288 64h-64v192h64v-192zM288 320h-64v64h64v-64z" />
<glyph unicode="&#xe607;" d="M0 480v-512h512v512h-512zM210.752 99.52l-113.152 113.184 45.248 45.248 67.904-67.904 158.4 158.4 45.248-45.248-203.648-203.68z" />
<glyph unicode="&#xe608;" d="M0 480v-512h512v512h-512zM288 64h-64v64h64v-64zM283.2 179.232h-54.4l-4.8 124.768v80h64v-80l-4.8-124.768z" />
<glyph unicode="&#xe609;" d="M370.56 384h-322.080c-22.144 0-48.48-23.296-48.48-45.408v-190.944c0-22.144 26.336-51.648 48.48-51.648h120.8l72.928-61.248 45.792-34.752v96h82.56c22.144 0 45.44 29.504 45.44 51.616v190.976c0 22.112-23.264 45.408-45.44 45.408zM471.712 480h-322.048c-22.176 0-53.664-18.112-53.664-40.256v-23.744h274.56c46.56 0 77.44-35.968 77.44-77.408v-146.592h23.712c22.176 0 40.288 2.624 40.288 24.736v223.008c0 22.144-18.112 40.256-40.288 40.256zM96 320h224v-32h-224v32zM96 256h224v-32h-224v32zM96 192h224v-32h-224v32z" />
<glyph unicode="&#xe60a;" d="M448 480v-448h-448v448h448zM416 384h-384v-320h384v320zM384 192h-320v160h320v-160zM64 96h96v44.992h-96v-44.992zM352 320h-256v-96h256v96zM192 96h96v44.992h-96v-44.992z" />
<glyph unicode="&#xe60b;" d="M0-32h512v512h-512v-512zM248.992 113.376l-124.128 171.168c-3.168 4.352-1.344 7.904 4.032 7.904h254.208c5.376 0 7.168-3.52 3.968-7.872l-126.56-171.264c-3.168-4.32-8.384-4.288-11.52 0.064z" />
<glyph unicode="&#xe60c;" d="M0 480v-512h512v512h-512zM145.376 231.008l171.168 124.128c4.384 3.168 7.936 1.344 7.936-4.032v-254.208c0-5.376-3.552-7.168-7.872-3.968l-171.296 126.528c-4.32 3.2-4.288 8.416 0.064 11.552z" />
<glyph unicode="&#xe60d;" d="M0 480v-512h512v512h-512zM366.688 219.456l-171.264-126.56c-4.352-3.2-7.872-1.408-7.872 3.968v254.24c0 5.376 3.552 7.2 7.904 4.032l171.168-124.128c4.352-3.136 4.384-8.352 0.064-11.552z" />
<glyph unicode="&#xe60e;" d="M0-32h512v512h-512v-512zM260.544 334.688l126.56-171.264c3.2-4.352 1.408-7.872-3.968-7.872h-254.24c-5.376 0-7.2 3.552-4.032 7.904l124.128 171.168c3.136 4.352 8.352 4.384 11.552 0.064z" />
<glyph unicode="&#xe60f;" d="M383.136 315.168c5.376 0 7.168-3.52 3.968-7.872l-126.56-171.232c-3.2-4.32-8.384-4.32-11.552 0.064l-124.128 171.136c-3.136 4.352-1.344 7.904 4.032 7.904h254.24z" />
<glyph unicode="&#xe610;" d="M347.2 96.864c0-5.376-3.552-7.168-7.872-3.968l-171.296 126.56c-4.32 3.2-4.288 8.384 0.064 11.552l171.168 124.128c4.384 3.168 7.936 1.344 7.936-4.032v-254.24z" />
<glyph unicode="&#xe611;" d="M255.904 122.4c-4.864 0-8.896 4-8.896 4l-139.264 139.264c-6.208 6.208-6.208 16.416 0 22.624l11.328 11.328c6.24 6.208 16.416 6.208 22.624 0l114.304-114.304 114.144 114.144c6.208 6.208 16.448 6.208 22.624 0l11.328-11.328c6.24-6.208 6.24-16.416 0-22.624l-138.688-138.688c0 0-3.040-4.416-9.504-4.416z" />
<glyph unicode="&#xe612;" d="M0-32h512v512h-512v-512zM255.904 122.4c-4.864 0-8.896 4-8.896 4l-139.264 139.264c-6.208 6.208-6.208 16.416 0 22.624l11.328 11.328c6.24 6.208 16.416 6.208 22.624 0l114.304-114.304 114.144 114.144c6.208 6.208 16.448 6.208 22.624 0l11.328-11.328c6.24-6.208 6.24-16.416 0-22.624l-138.688-138.688c0 0-3.040-4.416-9.504-4.416z" />
<glyph unicode="&#xe613;" d="M154.4 224.064c0 4.896 4.032 8.928 4.032 8.928l24.896 24.928 114.336 114.336c6.208 6.208 16.448 6.208 22.624 0l11.328-11.328c6.24-6.208 6.24-16.416 0-22.624l-114.304-114.304 114.144-114.144c6.208-6.208 6.208-16.448 0-22.624l-11.36-11.328c-6.208-6.24-16.416-6.24-22.624 0l-138.656 138.688c0 0-4.416 3.040-4.416 9.472z" />
<glyph unicode="&#xe614;" d="M0 480v-512h512v512h-512zM154.4 224.064c0 4.896 4.032 8.928 4.032 8.928l24.896 24.928 114.336 114.336c6.208 6.208 16.448 6.208 22.624 0l11.328-11.328c6.24-6.208 6.24-16.416 0-22.624l-114.304-114.304 114.144-114.144c6.208-6.208 6.208-16.448 0-22.624l-11.36-11.328c-6.208-6.24-16.416-6.24-22.624 0l-138.656 138.688c0 0-4.416 3.040-4.416 9.472z" />
<glyph unicode="&#xe615;" d="M353.184 214.592l-138.688-138.656c-6.208-6.24-16.416-6.24-22.624 0l-11.328 11.328c-6.24 6.176-6.24 16.416 0 22.624l114.144 114.112-114.304 114.272c-6.208 6.208-6.208 16.416 0 22.624l11.296 11.328c6.208 6.208 16.416 6.208 22.624 0l139.264-139.264c0 0 4-4.032 4-8.928 0.032-6.4-4.384-9.44-4.384-9.44z" />
<glyph unicode="&#xe616;" d="M0 480v-512h512v512h-512zM353.184 214.592l-138.688-138.656c-6.208-6.24-16.416-6.24-22.624 0l-11.328 11.328c-6.24 6.176-6.24 16.416 0 22.624l114.144 114.112-114.304 114.272c-6.208 6.208-6.208 16.416 0 22.624l11.296 11.328c6.208 6.208 16.416 6.208 22.624 0l139.264-139.264c0 0 4-4.032 4-8.928 0.032-6.4-4.384-9.44-4.384-9.44z" />
<glyph unicode="&#xe617;" d="M265.408 321.184l24.576-24.544 114.112-114.144c6.24-6.208 6.24-16.416 0-22.624l-11.328-11.36c-6.176-6.208-16.416-6.208-22.624 0l-114.144 114.176-114.304-114.272c-6.208-6.24-16.384-6.24-22.624 0l-11.328 11.328c-6.208 6.176-6.208 16.416 0 22.624l139.264 139.232c0 0 4.032 4.032 8.896 4.032 6.464-0.032 9.504-4.448 9.504-4.448z" />
<glyph unicode="&#xe618;" d="M0-32h512v512h-512v-512zM265.408 321.184l24.576-24.544 114.112-114.144c6.24-6.208 6.24-16.416 0-22.624l-11.328-11.36c-6.176-6.208-16.416-6.208-22.624 0l-114.144 114.176-114.304-114.272c-6.208-6.24-16.384-6.24-22.624 0l-11.328 11.328c-6.208 6.176-6.208 16.416 0 22.624l139.264 139.232c0 0 4.032 4.032 8.896 4.032 6.464-0.032 9.504-4.448 9.504-4.448z" />
<glyph unicode="&#xe619;" d="M164.8 351.104c0 5.376 3.552 7.2 7.904 4.032l171.168-124.128c4.352-3.168 4.384-8.352 0.064-11.552l-171.264-126.56c-4.352-3.2-7.872-1.408-7.872 3.968v254.24z" />
<glyph unicode="&#xe61a;" d="M128.896 128c-5.376 0-7.2 3.552-4.032 7.936l124.096 171.168c3.168 4.352 8.352 4.384 11.552 0.064l126.56-171.296c3.2-4.32 1.408-7.872-3.968-7.872h-254.208z" />
<glyph unicode="&#xe61b;" d="M99.296-32c-23.36 0.832-44.992 10.784-64.896 29.856-25.088 25.952-35.936 52.768-32.448 80.48 3.456 22.464 15.168 44.128 35.040 64.864l194.656 196c43.264 41.536 79.168 47.136 107.712 16.864 28.544-29.44 22.496-64.896-18.176-106.432l-179.072-180.416-35.040 35.040 179.072 180.416c19.040 19.008 25.12 31.136 18.208 36.32-4.352 7.808-16.032 3.008-35.072-14.272-0.832-0.864-1.728-1.76-2.592-2.592l-194.656-195.968c-12.096-12.96-19.040-25.088-20.768-36.352 0-12.128 6.080-25.088 18.176-38.944 12.992-12.128 24.224-16.832 33.76-14.24 12.096 1.696 25.088 9.472 38.912 23.328l231.008 231.008c19.008 19.008 31.136 37.184 36.32 54.528 5.184 25.952-3.424 50.624-25.952 73.984-39.776 38.016-82.208 34.56-127.2-10.4l-214.112-214.144c-12.096-9.536-23.776-9.536-35.040 0-9.504 12.096-9.504 23.776 0 35.072l214.112 214.112c60.544 60.544 119.392 70.080 176.512 28.544 7.776-6.080 14.72-12.128 20.736-18.176 37.184-38.080 50.144-78.752 38.944-121.984-8.672-26.848-25.088-52.384-49.312-76.576-1.76-1.76-78.72-78.752-231.008-231.008-21.632-20.768-43.712-33.344-66.176-37.632-1.728 0-3.904-0.256-6.496-0.672-2.56-0.384-4.288-0.608-5.152-0.608z" />
<glyph unicode="&#xe61c;" d="M416 144v-80h-320v144l-96-80v35.008l76.992 60.992-76.992 60.992v35.008l96-80v144h320v-80l96-80-96-80zM384 352h-256v-256h256v256zM256 128h-64v192h54.016c21.344 0 36.352-4.352 44.992-12.992 10.016-9.344 15.328-23.008 16-40.992 0-3.328-2.016-12-6.016-26.016-2.656-4-8-8.352-16-12.992 6.656-0.672 14.016-4.992 22.016-12.992 4.672-13.344 7.008-22.656 7.008-28 0-16-5.344-30.016-16-42.016-10.688-10.016-24.672-15.328-42.016-16zM218.016 240h32c12.672 0 20.992 3.328 24.992 10.016 4.672 4.672 7.008 11.008 7.008 19.008-0.672 8.64-4 14.976-10.016 18.976-4.672 4-13.344 5.984-25.984 5.984h-28v-53.984zM218.016 156.992h35.008c8 0 16.352 2.016 24.992 6.016 5.984 3.328 9.312 10.976 9.984 22.976 0 10.016-3.328 18.336-10.016 24.992-9.312 4.672-18.656 7.008-27.968 7.008h-32v-60.992zM416 268.992v-89.984l58.016 44.992-58.016 44.992z" />
<glyph unicode="&#xe61d;" d="M352 448v-64h-96v64h-96v-64h-96v64h-64v-480h416v480h-64zM320 64h-224v32h224v-32zM320 160h-224v32h224v-32zM320 256h-224v32h224v-32zM88 480h48v-64h-48v64zM280 480h48v-64h-48v64z" />
<glyph unicode="&#xe61e;" d="M448.672 237.984c-0.672-16.64 2.336-32.992 8.992-48.992 6.688-16 17.696-24 32.992-24v-28.992h-15.008l-11.008 6.016c-6.656 3.328-14.144 13.504-22.496 30.496-8.32 16.992-13.824 38.816-16.512 65.504h-42.016c0-35.328-2.304-66.336-7.008-92.992l38.016-30.016v-83.008l12-32.992v-31.008h-19.008l-19.008 47.008v84l-19.008 20c-15.328-64-43.648-103.648-84.992-119.008l-18.016 32.992-18.912-32.992c-44.672 16.672-74.336 56.352-88.992 119.008l-26.016-20v-84l-4.992-47.008h-33.024v28.992l12 34.016v83.008l44.992 28.992c-2.656 17.344-2.656 41.664 0 72.992 0.672 9.344 1.024 16.32 1.024 20.992h-42.016c-4.64-42.656-16.64-73.664-36-92.992l-13.984-10.016h-29.984v29.024c22.016 0.672 38.336 19.328 48.992 56l7.008 41.984h66.016c0.672 4.672 0.32 12.672-0.992 24-0.704 7.328-1.056 12.352-1.056 15.008l-107.968 111.008v4.992h27.008l87.008-88c2.624 14.656 3.968 22.656 3.968 24h212.992l3.008-24 89.984 88h12v-4.992l-100-110.016c0-2.656 0.672-8 2.016-16 1.344-10.656 2.016-18.336 2.016-23.008h67.008l-1.024-24zM168.672 377.984c8 32.672 15.648 53.344 23.008 62.016l-33.024 36.992v3.008h26.016l30.016-26.016c12 8.672 18.656 13.344 20 14.016l16-0.992h49.984l20.992-14.016 28.992 27.008h12v-4l-24.992-36c12.672-14.688 22.336-35.328 28.992-62.016h-197.984z" />
<glyph unicode="&#xe61f;" d="M456 384h-72v51.648c0 13.28-10.72 24-24 24h-48c-13.28 0-24-10.72-24-24v-51.648h-96v51.648c0 13.28-10.72 24-24 24h-48c-13.28 0-24-10.72-24-24v-51.648h-72c-13.216 0-24-10.784-24-24v-368c0-13.216 10.784-24 24-24h432c13.216 0 24 10.784 24 24v368c0 13.216-10.784 24-24 24zM320 417.888c0 4.416 3.584 8 8 8h16c4.416 0 8-3.584 8-8v-112c0-4.416-3.584-8-8-8h-16c-4.416 0-8 3.584-8 8v112zM128 417.888c0 4.416 3.584 8 8 8h16c4.416 0 8-3.584 8-8v-112c0-4.416-3.584-8-8-8h-16c-4.416 0-8 3.584-8 8v112zM448 0h-416v256h416v-256z" />
<glyph unicode="&#xe620;" d="M473.504 416h-57.504v-185.856c0-38.688-33.44-70.208-72.16-70.208h-101.344l-31.936-31.936h71.904l101.536-101.888v101.888h89.504c21.024 0 38.496 17.184 38.496 38.208v211.648c0 21.024-17.472 38.144-38.496 38.144zM343.84 192c21.024 0 40.16 17.184 40.16 38.208v211.584c0 21.024-19.136 38.208-40.16 38.208h-305.632c-21.024 0-38.208-17.184-38.208-38.208v-211.584c0-21.024 17.184-38.208 38.208-38.208h89.792v-101.888l37.728 38.368 63.52 63.52h114.592zM206.624 214.624l-47.264-47.232v56.608h-121.152c-3.392 0-6.208 2.816-6.208 6.208v211.584c0 3.392 2.816 6.208 6.208 6.208h305.632c3.392 0 6.208-2.816 6.208-6.208l1.952-25.728v-185.856c0-3.392-4.768-6.208-8.16-6.208h-127.84l-9.376-9.376z" />
<glyph unicode="&#xe621;" d="M445.216 429.952l-267.136-267.136-111.296 111.296-66.784-66.784 178.080-178.080 333.92 333.92z" />
<glyph unicode="&#xe622;" d="M236.32 229.056l-76.32 101.92 28.672 21.024 93.248-122.944-93.248-118.848-28.672 21.024 76.32 97.824zM334.656 229.056l-76.288 101.92 28.672 21.024 93.184-122.944-93.184-118.848-28.672 20.992 76.288 97.856z" />
<glyph unicode="&#xe623;" d="M0.128 166.4c-3.563 77.611 72.448 129.834 130.026 105.088-4.587 59.968 36.544 97.344 93.12 106.262 48.875 7.723 90.026-18.986 111.573-63.808 47.786 58.262 157.184-4.97 112.171-79.766 80.618-0.49 103.85-155.946-33.984-159.51h-315.776c-53.654 0-97.13 49.067-97.13 91.733z" />
<glyph unicode="&#xe624;" d="M400.396 209.978v22.214l-39.633 15.849c-2.56 9.972-6.493 19.386-11.625 28.020l16.826 39.261-15.721 15.72-39.261-16.826c-8.658 5.131-18.048 9.064-28.021 11.625l-15.849 39.633h-22.214l-15.849-39.633c-9.972-2.56-19.386-6.493-28.020-11.625l-39.261 16.826-15.709-15.709 16.826-39.261c-5.131-8.658-9.065-18.048-11.625-28.021l-39.645-15.861v-22.214l39.633-15.849c2.56-9.972 6.493-19.386 11.625-28.020l-16.826-39.261 15.709-15.709 39.261 16.826c8.657-5.132 18.048-9.065 28.020-11.625l15.861-39.645h22.214l15.849 39.634c9.973 2.56 19.386 6.493 28.020 11.625l39.261-16.826 15.709 15.709-16.826 39.261c5.132 8.658 9.065 18.048 11.625 28.020l39.645 15.861zM311.541 221.091c0-30.627-24.913-55.541-55.541-55.541s-55.541 24.913-55.541 55.541 24.913 55.54 55.541 55.54 55.541-24.913 55.541-55.54z" />
<glyph unicode="&#xe625;" d="M256 276.631c-30.627 0-55.541-24.913-55.541-55.54s24.913-55.541 55.541-55.541 55.541 24.913 55.541 55.541c0 30.627-24.913 55.54-55.541 55.54zM0 477.091v-512h512v512h-512zM400.396 209.978l-39.645-15.861c-2.56-9.972-6.493-19.363-11.625-28.020l16.826-39.261-15.709-15.709-39.261 16.826c-8.634-5.132-18.048-9.065-28.021-11.625l-15.849-39.634h-22.214l-15.861 39.645c-9.972 2.56-19.363 6.493-28.020 11.625l-39.261-16.826-15.709 15.709 16.826 39.261c-5.131 8.634-9.065 18.048-11.625 28.020l-39.633 15.848v22.214l39.645 15.861c2.56 9.972 6.493 19.363 11.625 28.020l-16.826 39.261 15.709 15.709 39.261-16.826c8.634 5.131 18.048 9.065 28.020 11.625l15.849 39.634h22.214l15.849-39.634c9.973-2.56 19.363-6.493 28.020-11.625l39.261 16.826 15.721-15.721-16.826-39.261c5.132-8.634 9.065-18.048 11.625-28.021l39.633-15.849v-22.214z" />
<glyph unicode="&#xe626;" d="M510.816 160c-1.216 11.808-2.4 19.552-3.552 23.104-3.2 7.872-7.904 14.208-14.24 18.944-2.4 1.184-12.256 4.928-29.664 11.264-20.096 7.488-31.936 12.256-35.52 14.24-5.152 3.584-8.288 10.464-9.472 20.736l2.4 3.552c0.768 0.384 1.152 0.8 1.152 1.216 7.904 7.872 13.856 18.56 17.792 31.968 7.52 27.264 6.304 49.6-3.552 66.976-1.184 1.984-2.368 3.744-3.552 5.344-9.088 11.456-23.104 17.792-42.080 18.944h-2.944c-20.16-1.568-34.016-7.904-41.504-18.944-2.176-2.88-3.712-6.208-5.312-9.504 0.8-2.24 1.696-4.448 2.336-6.784 2.048-7.296 3.264-15.072 3.712-23.296 0.704-13.152-0.736-27.52-4.16-43.008 4.352-9.44 9.056-16.672 14.080-21.696 0.384-0.416 0.992-1.216 1.76-2.4 0.8-1.184 1.376-1.952 1.792-2.368 1.568-4.384-0.608-10.272-6.528-17.792-1.184-1.568-2.176-2.592-2.976-2.976-9.472-4.768-21.728-9.472-36.736-14.208-1.312-0.48-2.272-0.832-3.52-1.28l-2.112-3.104c0.448-3.808 1.056-7.264 1.856-10.432 1.312-5.12 3.2-9.248 5.472-12.736 0.96-1.472 1.952-2.88 3.072-4.128 1.088-1.248 2.272-2.336 3.584-3.264 1.312-0.736 3.392-1.696 6.24-2.944s6.432-2.72 10.816-4.48c8.736-3.488 20.512-8 35.296-13.504 25.6-9.344 40.128-14.848 43.648-16.576 9.312-7.008 16.256-16.288 20.96-27.904 1.696-5.216 3.424-16.64 5.216-34.016 0.384-4.928 0.8-8.608 1.216-11.232 34.912 2.464 56.608 7.552 64.448 15.392 0 0 1.792 1.792 1.792 8.384s0 59.008 0 59.008c-0.448 1.6-0.832 4.736-1.216 9.504zM111.232 140.864c2.944 1.728 17.472 7.232 43.648 16.576 22.112 6.944 40.16 13.92 54.080 20.928 0.576 0.288 1.248 0.8 1.984 1.536s1.536 1.696 2.4 2.848c8.704 11.040 11.936 19.744 9.6 26.176-0.576 0.608-1.472 1.728-2.624 3.456s-2.016 2.912-2.592 3.52c-9.92 9.888-18.944 25.568-27.072 47.104-0.576 1.728-1.184 4.032-1.76 6.944-1.536 7.040-2.56 13.696-3.36 20.224-0.448 2.080-0.896 4.16-1.152 6.528l0.416 0.576c-2.432 29.6 3.232 53.728 17.216 72.192 3.584 5.28 8.288 9.792 13.856 13.6-0.384 14.592-3.68 27.52-10.016 38.72-1.44 2.368-2.88 4.512-4.288 6.432-10.976 13.792-27.872 21.44-50.752 22.88h-3.552c-24.32-1.92-41.024-9.568-50.048-22.88-14.784-19.584-18.336-46.72-10.752-81.536 0.448-2.4 0.96-4.288 1.44-5.696 6.688-17.632 14.080-30.496 22.176-38.56 0.48-0.512 1.184-1.472 2.144-2.88 0.96-1.44 1.664-2.336 2.144-2.848 1.92-5.28-0.736-12.384-7.872-21.44-1.44-1.888-2.624-3.136-3.584-3.584-11.424-5.728-26.208-11.456-44.288-17.152-21.472-7.648-33.344-12.16-35.744-13.568-8.096-6.208-13.824-13.824-17.152-22.88-3.808-11.424-5.728-24.544-5.728-39.328 0 0 0-63.136 0-67.456s2.144-7.808 2.144-7.808c10.432-10.080 38.144-16.512 82.464-19.488 1.088 10.368 2.752 20.224 5.664 28.96 4.128 11.040 11.104 20.352 20.96 27.904zM429.184 77.696c-2.080 20.416-3.68 27.648-4.384 30.048-3.424 8.256-8.192 14.784-14.464 19.84-3.296 1.408-12.992 5.184-40.896 15.392-40.8 15.168-50.656 19.776-54.528 21.92l-0.704 0.352-0.64 0.448c-8.8 6.144-14.848 16.064-18.208 29.344-0.832 3.36-1.504 6.944-2.016 10.752-0.064 0.48-0.192 0.864-0.256 1.376l-0.64 5.664 0.352 0.48 5.44 8.064v0.96l1.952 1.952 1.248 1.824 1.216 0.608 0.128 0.128c9.728 9.728 17.216 23.328 22.24 40.48 9.824 35.584 8.576 64.832-3.84 86.656-1.28 2.176-2.752 4.352-4.192 6.304-10.272 12.896-26.752 20.128-50.048 21.664h-3.232c-24.32-1.984-40.768-9.12-48.928-21.152l-0.448-0.64c-0.064-0.064-0.128-0.128-0.16-0.224-8.448-11.296-13.12-25.6-14.176-42.592-0.832-13.088 0.384-27.744 3.968-44.096 0.48-2.432 0.896-4.096 1.312-5.344 0.096-0.192 0.16-0.384 0.256-0.576 7.040-18.496 14.88-32.288 23.072-40.48 1.504-1.568 2.848-3.328 4.576-5.92 0.448-0.672 0.8-1.184 1.088-1.536l2.272-2.368 0.928-2.88c6.4-17.664-7.456-35.2-12-40.992-3.232-4.224-6.304-6.976-9.792-8.672-14.528-7.296-32.96-14.432-56.16-21.76-28.736-10.272-37.344-13.76-39.936-14.944-7.008-5.632-11.872-12.256-14.816-20.192-2.4-7.2-4-15.488-4.992-24.48-0.64-5.792-1.024-11.808-1.024-18.208v-44.672c0-0.064 0-0.096 0-0.16 10.080-7.136 45.024-20.064 166.016-20.064 121.952 0 156.288 12.224 165.952 19.072 0.096 0.736 0.16 1.76 0.16 3.136v41.088c-0.192 0.96-0.352 2.304-0.512 3.52-0.416 2.848-0.8 6.208-1.184 10.88z" />
<glyph unicode="&#xe627;" d="M460.8 480h-409.6c-28.192 0-51.2-23.008-51.2-51.2v-281.6c0-28.16 23.008-51.2 51.2-51.2h140.8v-128l112 128h156.8c28.16 0 51.2 23.744 51.2 51.904v280.896c0 28.192-23.040 51.2-51.2 51.2zM288 149.344h-64v48h64v-48zM350.784 303.552c-6.88-11.040-20.8-25.344-42.592-43.712-12.8-10.848-16.704-16.576-17.856-19.072-0.768-1.568-1.76-4.928-2.336-11.872-0.32-3.616-0.064-9.76 0-15.552h-64v16c0 32 2.848 28.256 8.384 39.264 5.568 10.976 16.032 22.72 32.032 35.936 19.392 15.904 24.128 21.216 25.28 22.72 3.392 4.416 4.992 9.28 4.992 14.72 0 7.616-2.976 14.048-9.056 19.552-6.4 5.792-15.008 8.64-26.336 8.64-10.976 0-19.776-3.040-26.976-9.184-7.232-6.272-12.384-16.256-15.2-29.632l-1.664-7.68-7.776 0.992-54.816 6.88 0.512 8c1.472 24.224 11.744 45.024 30.496 61.856 18.72 16.768 43.328 25.248 73.248 25.248 31.328 0 56.768-8.576 75.552-25.504 19.2-17.152 28.864-37.568 28.864-60.64 0.032-12.992-3.584-25.408-10.752-36.96z" />
<glyph unicode="&#xe628;" d="M480 288v-288h32v-32h-224v96h-64v-96h-224v32h32v288h-32v32h160v32h192v-32h160v-32h-32zM128 256h-32v-64h32v64zM128 160h-32v-64h32v64zM128 64h-32v-64h32v64zM224 256h-32v-64h32v64zM224 160h-32v-64h32v64zM320 256h-32v-64h32v64zM320 160h-32v-64h32v64zM416 256h-32v-64h32v64zM416 160h-32v-64h32v64zM416 64h-32v-64h32v64z" />
<glyph unicode="&#xe629;" d="M512 480v-480h-512v480h512zM160 256h-128v-96h128v96zM160 128h-128v-96h128v96zM320 256h-128v-96h128v96zM320 128h-128v-96h128v96zM480 256h-128v-96h128v96zM160 384h-128v-96h128v96zM320 384h-128v-96h128v96zM480 384h-128v-96h128v96zM480 128h-128v-96h128v96z" />
<glyph unicode="&#xe62a;" d="M408.48 391.552c4.128-4.16 7.52-12.352 7.52-18.208v-394.656c0-5.92-4.768-10.688-10.656-10.688h-394.688c-5.856 0-10.656 4.768-10.656 10.656v490.688c0 5.856 4.8 10.656 10.656 10.656l298.656-0.032c5.888 0 14.048-3.392 18.176-7.52l80.992-80.896zM298.656 352c-5.888 0-10.656 4.8-10.656 10.656v74.656c0 5.888-4.768 10.688-10.656 10.688h-234.656c-5.888 0-10.688-4.8-10.688-10.688v-426.656c0-5.888 4.8-10.656 10.688-10.656h330.656c5.888 0 10.656 4.768 10.656 10.656v330.688c0 5.856-4.768 10.656-10.656 10.656h-74.688zM96 330.656c0-5.856 4.8-10.656 10.656-10.656h138.656c5.888 0 10.688 4.8 10.688 10.656v10.688c0 5.856-4.8 10.656-10.656 10.656l-138.656-0.032c-5.888 0-10.656-4.8-10.688-10.656v-10.656zM96 277.344c0 5.856 4.8 10.656 10.656 10.656h202.656c5.92 0 10.688-4.8 10.688-10.656v-10.656c0-5.888-4.768-10.688-10.656-10.688h-202.688c-5.856 0-10.656 4.8-10.656 10.656v10.688zM96 202.656c0-5.856 4.8-10.656 10.656-10.656h202.656c5.92 0 10.688 4.8 10.688 10.656v10.656c0 5.856-4.768 10.688-10.656 10.688h-202.656c-5.856 0-10.656-4.832-10.688-10.688v-10.656zM96 138.656c0-5.888 4.8-10.656 10.656-10.656h202.656c5.92 0 10.688 4.768 10.688 10.656v10.656c0 5.856-4.768 10.656-10.656 10.656h-202.656c-5.888 0-10.656-4.8-10.688-10.656v-10.656zM96.032 74.656c0-5.888 4.8-10.656 10.656-10.656h74.624c5.888 0 10.688 4.768 10.688 10.656v10.688c0 5.888-4.8 10.656-10.656 10.656h-74.656c-5.888 0-10.656-4.768-10.656-10.656v-10.688z" />
<glyph unicode="&#xe62b;" d="M313.6 480c-31.68 0-57.6-32.704-57.6-64 0 31.296-25.92 64-57.6 64h-198.4v-448h198.4c31.68 0 57.6-22.048 57.6-53.344 0 31.296 25.92 53.344 57.6 53.344h198.4v448h-198.4zM192 138.656h-128v21.344h128v-21.344zM192 202.656h-128v21.344h128v-21.344zM192 266.656h-128v21.344h128v-21.344zM192 330.656h-128v21.344h128v-21.344zM448 138.656h-128v21.344h128v-21.344zM448 202.656h-128v21.344h128v-21.344zM448 266.656h-128v21.344h128v-21.344zM448 330.656h-128v21.344h128v-21.344z" />
<glyph unicode="&#xe62c;" d="M384 256v-96h96l-224-192-224 192h96v96h256zM128 480h256v-64h-256v64zM128 384h256v-96h-256v96z" />
<glyph unicode="&#xe62d;" d="M148 308l80-36h56l80 36-108 35.2zM256 480c-141.6 0-256-114.4-256-256s114.4-256 256-256 256 114.4 256 256c0 141.6-114.4 256-256 256zM368 224v-48l-64-32h-16v-32h48l-80-96-80 96h48v32h-16l-64 32v48l-64 32 64 50.4-56 53.6 112.8 25.6 55.2-33.6 58.4 34.4 109.6-26.4-56.8-51.2 64.8-52.8-64-32zM224 176h64v-32h-64v32zM224 208h64v-16h-64v16z" />
<glyph unicode="&#xe62e;" d="M416 400.992c10.656-11.328 18.656-22.336 24-32.992 5.344-12 8-20 8-24v-8.992l-128.992-129.024-148.992-147.008-122.016-26.976 26.016 123.008 276.992 276.992c19.328 3.328 40.992-7.008 64.992-31.008zM175.008 85.984c-0.672 15.328-9.344 31.328-26.016 48-6.656 6.016-14.336 12-23.008 18.016-8 4-14.016 6.016-18.016 6.016l-7.008 0.992-12-12-8.96-41.024c7.328-4 15.328-9.664 24-16.992 8.672-9.984 14.656-18.336 18.016-24.992l40.992 8.992 12 12.992z" />
<glyph unicode="&#xe62f;" d="M416 32h32v-32h32v-32h-480v32h32v32h32v224h-32v64h-32v16l240 80 240-80v-16h-32v-64h-32v-224zM160 256h-32v-224h32v224zM256 256h-32v-224h32v224zM352 256h-32v-224h32v224z" />
<glyph unicode="&#xe630;" d="M488 384h-464c-13.216 0-24-10.784-24-24v-272c0-13.216 10.784-24 24-24h464c13.216 0 24 10.784 24 24v272c0 13.216-10.784 24-24 24zM458.656 352l-202.656-152-202.656 152h405.312zM32 328l138.656-104-138.656-104v208zM53.344 96l144 108 58.656-44 58.656 44 144-108h-405.312zM480 120l-138.656 104 138.656 104v-208z" />
<glyph unicode="&#xe631;" d="M256 480c-141.376 0-256-114.608-256-256 0-141.376 114.624-256 256-256 141.392 0 256 114.624 256 256 0 141.392-114.608 256-256 256zM374.864 304l-118.864-97.44-0.368 0.144-118.496 97.296h237.728zM128 289.52l85.184-71.6-85.184-61.968v133.568zM139.936 144l88.352 61.504 27.648-22.528 27.408 22.528 87.664-61.504h-231.072zM384 154.864l-85.536 63.056 85.536 71.6v-134.656z" />
<glyph unicode="&#xe632;" d="M364.672 447.008c41.344-31.328 62.016-72.672 62.016-124 0-24-6.656-48.32-20-72.992l-18.016-28.992c-16.672-16.672-25.312-41.344-26.016-74.016v-11.008c0-5.344-1.664-11.008-4.992-16.992-9.312-15.36-24.992-23.008-47.008-23.008h-86.976c-6.656 0-13.344 0.992-20 3.008-22.016 6.656-32.992 19.008-32.992 36.992v11.008c-0.672 30.656-9.024 55.328-25.024 73.984l-9.984 12.992c-6.688 9.344-13.184 22.528-19.52 39.52s-9.504 33.504-9.504 49.504c0 35.328 11.328 67.328 34.016 96 32 40.672 73.984 60.992 125.984 60.992 36.672 0 69.344-11.008 98.016-32.992zM349.664 60v-4.992c0-2.016-0.672-4.672-2.016-8-4-10.016-8.64-15.008-13.984-15.008h-132.992c-1.344 0-3.008 0.672-4.992 2.016-8 5.344-12 12.352-12 20.992v4.992c0.672 5.344 6.336 8.672 16.992 10.016h132.992c9.984-0.032 15.328-3.36 16-10.016zM337.664-4v-4.992c0-2.016-0.672-4.672-2.016-8-4.64-10.016-9.312-15.008-13.984-15.008h-109.984c-1.344 0-2.656 0.672-4 2.016-7.328 6.016-11.008 12.992-11.008 20.992v4.992c0.672 5.344 5.664 8.672 15.008 10.016h109.984c9.984-0.032 15.328-3.36 16-10.016z" />
<glyph unicode="&#xe633;" d="M192 352h256v-32h-256v32zM192 224h256v-32h-256v32zM192 96h256v-32h-256v32zM64 384h64v-64h-64v64zM64 256h64v-64h-64v64zM64 128h64v-64h-64v64z" />
<glyph unicode="&#xe634;" d="M428.8 448h-377.6c-28.192 0-51.2-23.008-51.2-51.2v-249.6c0-28.16 23.008-51.2 51.2-51.2h108.8v-128l112 128h156.8c28.16 0 51.2 23.744 51.2 51.904v248.896c0 28.192-23.040 51.2-51.2 51.2zM320 256h-64v-64c0-8.8-7.2-16-16-16s-16 7.2-16 16v64h-64c-8.832 0-16 7.168-16 16s7.168 16 16 16h64v64c0 8.832 7.2 16 16 16s16-7.168 16-16v-64h64c8.832 0 16-7.168 16-16s-7.168-16-16-16z" />
<glyph unicode="&#xe635;" d="M512 277.344l-128 106.656v-64h-208v-96h208v-64zM128 256l-128-106.656 128-117.344v64h208v96h-208z" />
<glyph unicode="&#xe636;" d="M408.48 391.552c4.128-4.16 7.52-12.352 7.52-18.208v-394.656c0-5.92-4.768-10.688-10.656-10.688h-394.688c-5.856 0-10.656 4.768-10.656 10.656v490.688c0 5.856 4.8 10.656 10.656 10.656l298.656-0.032c5.888 0 14.048-3.392 18.176-7.52l80.992-80.896zM298.656 352c-5.888 0-10.656 4.8-10.656 10.656v74.656c0 5.888-4.768 10.688-10.656 10.688h-234.656c-5.888 0-10.688-4.8-10.688-10.688v-426.656c0-5.888 4.8-10.656 10.688-10.656h330.656c5.888 0 10.656 4.768 10.656 10.656v330.688c0 5.856-4.768 10.656-10.656 10.656h-74.688zM90.144 45.76v0c-4.352 0-8.512 1.408-12.064 4.064-12.992 9.76-14.72 20.576-13.92 27.968 2.272 20.32 27.392 41.568 74.688 63.232 18.752 41.12 36.608 91.808 47.264 134.144-12.448 27.104-24.544 62.272-15.712 82.912 3.072 7.232 8.512 12.32 15.712 14.72 2.848 0.96 5.632 1.44 8.288 1.44 6.304 0 11.904-2.752 15.84-7.744 3.68-4.704 14.784-18.816-1.92-89.056 16.832-34.72 40.64-70.112 63.488-94.336 16.32 2.912 30.4 4.416 41.856 4.416 19.552 0 31.392-4.544 36.224-13.92 4-7.776 2.368-16.832-4.864-26.944-6.944-9.728-16.512-14.88-27.712-14.88-15.168 0-32.832 9.6-52.544 28.512-35.392-7.392-76.736-20.608-110.144-35.2-10.432-22.144-20.416-39.968-29.728-53.056-12.8-17.92-23.84-26.272-34.752-26.272zM123.36 109.696c-26.656-14.976-37.536-27.296-38.304-34.24-0.128-1.152-0.48-4.16 5.376-8.64 1.856 0.608 12.704 5.568 32.928 42.88zM291.488 164.896c10.176-7.808 19.168-12.096 25.792-12.096 2.912 0 6.784 0.672 10.624 6.080 1.856 2.592 2.592 4.288 2.88 5.184-1.536 0.8-6.016 2.496-17.12 2.496-6.304-0.032-13.792-0.608-22.176-1.664zM200.32 247.264c-8.928-30.88-20.704-64.192-33.376-94.368 26.080 10.112 54.432 18.944 81.056 25.184-16.864 19.584-33.664 44-47.68 69.184zM193.952 353.152c-0.288-0.032-0.672-0.128-1.216-0.32-1.216-0.384-2.208-1.056-3.040-3.008-3.2-7.52-0.672-21.76 4.224-37.088 4.096 26.4 1.92 37.6 0.032 40.416z" />
<glyph unicode="&#xe637;" d="M408.48 391.552l-80.928 80.864c-4.128 4.128-12.32 7.52-18.176 7.52l-298.688 0.064c-5.888 0-10.688-4.8-10.688-10.656v-490.656c0-5.92 4.8-10.688 10.688-10.688h394.656c5.888 0 10.656 4.768 10.656 10.656v394.688c0 5.856-3.392 14.048-7.52 18.208zM384 10.656c0-5.888-4.768-10.656-10.656-10.656h-330.656c-5.888 0-10.688 4.768-10.688 10.656v426.688c0 5.856 4.8 10.656 10.688 10.656h234.656c5.888 0 10.656-4.8 10.656-10.656v-74.656c0-5.888 4.768-10.688 10.656-10.688h74.688c5.888 0 10.656-4.8 10.656-10.656v-330.688zM176 416h48v-32h-48v32zM128 384h48v-32h-48v32zM176 352h48v-32h-48v32zM128 320h48v-32h-48v32zM176 288h48v-32h-48v32zM128 224h48v-32h-48v-112c0-8.832 7.168-16 16-16h64c8.832 0 16 7.168 16 16v144h-48v32h-48v-32zM208 128v-32h-64v32h64z" />
<glyph unicode="&#xe638;" d="M504.48 480h-496.928c-8.032 0-9.984-4.64-4.288-10.304l194.272-193.536v-184.16c0-8.032 4.64-19.232 10.336-24.864l96.256-95.872c5.696-5.664 10.336-3.744 10.336 4.288v300.64l194.24 193.504c5.696 5.664 3.776 10.304-4.224 10.304z" />
<glyph unicode="&#xe639;" d="M281.28 334.784h-66.24c3.648 19.52 7.296 36.672 10.912 51.104 9.824 39.296 22.784 60.032 37.472 60.032 11.456 0 24.576-6.016 39.072-17.952 3.744-2.88 9.28-3.104 16.736-0.64l1.632 0.992c9.472 9.472 14.048 17.888 14.048 25.696 0 2.048-0.768 4.64-2.464 8-6.752 11.936-19.328 17.984-37.472 17.984-28-0.704-56.608-15.072-85.024-42.752-19.168-19.776-35.2-54.24-47.712-102.464h-32.928l-22.336-18.784 5.28-12.288h42.432c-1.856-11.36-8.256-48.64-28.064-159.808l0.096-1.152c-13.024-68.288-25.472-111.616-36.288-128.096-5.888-5.28-13.664-8.224-22.912-8.768-12.832 0-24.64 4.032-35.456 12.224-4.64 2.752-9.248 3.008-14.496-0.224-10.88-7.968-16.832-16.64-17.568-26.080 0-2.816 1.12-6.016 3.776-10.432 6.56-8.832 15.552-13.376 26.784-13.376 2.848 0 5.888 0.288 8.256 0.8 22.176 0 44.48 11.072 66.176 32.736 32.8 30.112 57.888 84.032 74.432 160.224 10.944 49.312 20.448 97.12 28.192 142.176l55.168 3.84 18.496 27.008zM463.264 297.76c2.912 0 6.304-1.664 9.92-4.704 2.624-2.624 6.368-4.32 11.872-5.184 1.792 0 3.808 0.384 6.048 1.152 13.664 3.776 20.896 12.704 20.896 25.76 0 1.984-0.512 3.936-1.152 5.088-3.776 13.6-13.728 20.832-29.088 20.832-0.032 0-0.064 0-0.064 0-21.024-2.048-51.456-28.32-92.96-80.288l-6.528 21.056c-3.36 10.592-6.368 19.040-8.96 24.896-8.672 23.104-18.688 34.336-30.848 34.336-16.544-0.704-39.2-18.656-69.28-54.848l-2.496-2.944 18.688-18.688 2.976 3.296c18.176 20.448 27.168 25.856 31.264 27.072 1.44-0.96 6.176-5.728 15.104-28.704l19.008-52.192c-45.376-59.616-65.44-74.112-74.272-75.488-3.072 0.672-6.464 2.624-10.016 5.696-3.968 3.936-7.904 6.24-12.832 7.136-2.688 0-5.664-0.8-8.896-2.496-11.296-6.016-17.056-14.912-17.056-26.56 0.704-17.952 10.592-28.192 28.576-29.696h0.352c2.272 0 5.152 0.352 8.8 1.056 22.24 4.672 52.416 35.712 92.096 94.72l15.968-42.816c13.248-32.128 26.688-48.448 41.504-50.016 24.768 0 49.856 19.36 76.672 59.168l2.016 3.040-15.744 14.112-2.784-3.136c-21.216-23.488-32.416-29.44-37.152-30.208-3.296 0.224-12.384 5.024-25.088 44.864l-21.024 49.536c6.496 12.256 17.568 25.92 32.96 40.704 20.448 20.544 28.832 24.16 31.52 24.448z" />
<glyph unicode="&#xe63a;" d="M371.904 370.688c0 0.128-0.064 0.352 0 0.448 0 0.256 0 0.672 0 0.768l-1.152 1.76-0.224-0.448-0.288-0.416c0.096-0.128 0.448-0.288 0.512-0.384 0.576-0.544 0.8-1.12 1.152-1.728zM412.416 276.96l3.168 0.128c0.032 0 0.032 0 0.032 0 3.584 0 4.992-1.344 5.952-2.208 0.544-0.544 0.8-0.8 1.504-0.928 3.424-0.704 7.488-0.704 12.768-0.448l0.992-0.16c-0.128 0.096 0.448 0.096 0.992-0.128 0.832-0.16 1.44-1.088 1.792-1.6v-0.032c0.448 0.224 0.736 0.448 1.44 0.48 0.8 0 0.928 0.288 1.952 0.288l2.272 0.064-5.44-1.952-0.096-0.064 0.224-2.848-6.048-4.704 1.184-0.8 8.096 4.16 2.784-0.416 0.512-0.512c0.064-0.032 0.096-0.096 0.192-0.128l0.352 0.128-1.344 1.536 1.216 1.92-1.728 2.688 0.96 3.488 1.312 0.608c0.128 0.384 0.32 0.8 0.512 1.152h0.064c-0.064 0.16-0.064 0.288-0.064 0.416l-0.064 0.832 0.128 2.048 1.152 2.016 0.768 0.992c0.384 0.448 0.736 0.704 1.024 0.928 0.096 0.096 0.096 0.48 0.064 0.864-0.032 0.672-0.032 1.344 0.128 2.112 0 0.256 0.064 0.544 0.128 0.768-1.056-1.088-2.272-1.632-3.616-1.632v0c-1.216 0-2.080 0.512-2.624 0.832-0.256-0.128-0.8-0.576-1.728-0.8-0.512-0.224-2.784-0.128-3.616 0.224l-1.312 0.704c-0.32-0.928-0.896-2.24-2.496-2.944l-1.44-0.256-0.96 0.096-0.608 0.416-0.064-0.032c-0.736 0.416-1.312 0.768-1.952 1.28l-0.864 1.12c-0.448 0.384-1.12 1.152-1.952 1.664-0.352 0.224-0.608 0.416-0.896 0.576-0.672 0.384-1.28 0.768-1.888 1.248l-0.224 0.576v-0.032c-0.64 0.576-0.992 1.248-1.088 2.144-0.032 1.12-0.544 2.016-1.088 3.008-0.128 0.288-0.352 0.48-0.48 0.704-0.512 0.608-1.216 1.44-1.504 2.624l-0.224 0.992c-0.224 0.416-0.608 0.896-0.992 1.376l-0.992-0.032c-0.384-0.832-0.832-1.472-0.928-1.6-0.224-0.224-0.48-0.448-0.736-0.64 0.608-0.352 1.248-0.768 1.76-1.376 0.64-0.768 1.312-1.632 1.312-2.912s-0.736-2.4-2.016-2.944c-0.512-0.192-1.056-0.32-1.568-0.32l-1.216 0.192c-1.056 0.48-1.984 1.024-3.040 1.952l-1.536 0.96c-0.096 0-0.224 0-0.384 0-0.352-0.192-1.056-0.736-2.112-0.736l-1.6 0.448c-1.344 1.12-1.408 2.176-1.408 2.56 0-0.032 0.128-0.32 0.416-0.512l0.736 2.304c0 0 0 0 0 0l-1.248-1.984-0.64 0.256-3.008 1.6c-0.544 0.256-0.992 0.48-1.376 0.704l-0.032-1.088-1.536-0.704-0.992-0.032c-0.128 0-0.288 0-0.448 0 0.096-0.64 0.128-1.216-0.064-1.792-0.128-1.184-1.504-2.528-1.504-2.528l-0.768-0.672h0.032c-0.32-0.608-0.992-1.792-2.592-2.144l-0.736-0.096c-0.544 0-1.472 0.16-2.176 1.088-1.28 0.992-1.088 2.464-0.96 2.944 0.192 0.64 0.384 0.992 0.512 1.344 0.16 0.256 0.288 0.672 0.288 0.768-0.064 0.128-0.352 0.352-0.576 0.544-0.8 0.608-1.056 0.928-1.216 1.152l-6.528 3.872c-0.832 0.416-1.792 1.024-2.72 1.6-0.608 0.416-1.184 0.832-1.888 1.184-0.896 0.448-1.536 0.736-2.016 1.28l-1.6 2.4c-0.256 0.32-0.512 0.608-0.704 0.992l-0.352 1.152c0 0-0.064 0-0.064 0-0.992 0.224-1.568 0.672-2.080 0.992-0.192 0.096-0.448 0.288-0.544 0.352l-0.32-0.48c-0.512-0.448-0.736-0.608-0.992-0.768-0.512-0.832-0.992-1.696-2.016-2.24-1.056-0.64-3.552-1.632-5.344-0.704-0.448-0.096-1.376-0.096-2.176 0.448-0.544 0.288-0.992 0.832-1.408 1.28-0.096 0.16-0.288 0.384-0.384 0.448l-1.184-0.32c-0.256-0.192-0.992-0.768-1.856-1.376l-0.576-0.448c0.096 0.096 0.224-0.32 0.448-0.672 1.28-2.048 0.448-3.584-0.288-4.32l-0.064 0.064-0.768-0.864c-0.608-0.288-1.216-0.384-1.696-0.48-0.16 0-0.32-0.064-0.48-0.096l-0.512-0.512c-0.448-0.32-0.928-0.448-1.248-0.544 0.064 0-0.192-0.288-0.48-0.608-0.352-0.448-0.736-0.864-1.216-1.248-0.576-0.512-1.12-0.768-1.632-1.024-0.224-0.096-0.448-0.192-0.64-0.32l-0.736-0.8c0.224-0.64 0.224-1.248 0.224-1.6 0.128-1.088 0.224-1.952 0.064-2.816l-0.992-1.76c-0.704-0.768-1.408-1.248-2.080-1.664-0.448-0.256-1.024-0.64-1.184-0.832-0.256-0.416-0.384-0.832-0.544-1.184l-0.512-0.832c-0.416-0.544-0.992-0.864-1.6-1.184l0.032 0.192-1.216-0.64-4.064-0.16c-0.224-0.384-0.512-0.608-0.64-0.768-0.448-0.384-0.992-0.32-1.44-0.576 0.352-0.384 0.736-0.768 0.928-1.024l4.288 0.224 2.72 1.024c0.896 0.544 2.016 1.504 3.072 2.368 0.704 0.608 1.44 1.184 2.144 1.664 1.056 0.832 2.048 1.024 2.848 1.184 0.448 0.064 0.896 0.16 1.536 0.416 2.432 0.928 5.312 1.152 8.352 1.376 2.496 0.192 5.12 0.416 7.328 1.056 1.824 0.544 3.264 0.064 4.32-1.216l-1.28-2.048c0-0.032 0-0.032 0-0.032l1.728 1.44c0.448 0.256 1.28 0.48 2.048 0.672l2.016 0.48 0.384-0.352-0.096 0.256 1.344 0.192 1.024-0.096c1.856-0.544 2.208-2.432 2.432-3.552 0-0.16 0.064-0.32 0.064-0.448 0.096-0.096 0.224-0.128 0.352-0.192 1.216-0.576 2.368-1.472 2.496-3.872l-0.512-2.112-0.512-1.024c0.16-0.128 0.224-0.256 0.384-0.384 1.216-1.376 1.504-1.472 2.72-1.088l0.896 0.256c1.408 0.448 2.72 0.512 3.872 0.192 0.608-0.288 1.12-0.544 2.112-2.016 0.448-0.16 0.864-0.384 1.216-0.736 0.224-0.16 0.704-0.512 1.216-0.864l0.672-0.48c2.112-1.44 2.464-2.112 2.592-2.432 0.288-0.736 0.448-1.216 0.512-1.632l4.992-1.664c1.152-0.256 2.208-0.32 3.232-0.096l0.288 0.544 0.192 4.064 0.8 3.136 1.216 1.536 2.432 0.96c1.12 0.096 2.048-0.064 3.008-0.32 0.832-0.352 1.344-0.736 1.728-1.056zM450.912 257.12c-0.384 0.896-0.512 1.792-0.672 2.656-0.064 0.448-0.064 0.864-0.224 1.344l-0.064 2.784-1.28-0.544-1.376 1.568-0.128-0.256c0.352-0.256 0.736-0.384 1.024-0.864l0.384-0.736 0.128-1.696-0.224-0.736 1.056-0.352 0.64-3.040c0.512-1.76 0.768-2.656 1.504-3.808 0.768-1.088 1.344-2.4 1.728-3.68l0.288-0.16c0.064-0.032 0.224-0.192 0.352-0.512 0.512-1.152 0.96-1.92 1.44-2.72l0.576-0.96c0.32-0.544 0.8-1.056 1.376-1.568 0.608-0.608 1.28-1.28 1.824-2.144l0.096-0.576c0.608-0.48 1.376-1.184 1.664-2.208 0.448-1.28 0.352-2.752 0.352-4.064l-0.064-1.024c0.064-1.696 1.792-2.944 2.56-3.424 1.6-0.96 2.72-2.016 3.392-3.2 0.864-1.6 0.832-3.616 0.832-5.408-0.032-0.448-0.032-0.896-0.032-1.28 0.192-0.544 0.672-0.768 1.024-0.96 0.512-0.256 1.056-0.512 1.664-0.864 0.352-0.16 0.8-0.608 1.472-1.28 0.384-0.352 1.376-0.768 2.048-1.088l0.8-0.352c0.992-0.416 1.696-1.248 2.080-1.76v0c-0.416 0.992-0.608 2.048-0.64 2.656-0.032 0.352-0.32 0.992-0.512 1.216-0.48 0.48-0.864 0.992-1.184 1.536l-0.48 2.016 0.096 1.312c0.192 0.672 0.544 1.152 0.8 1.504l-0.8 1.12c-0.928 0.64-1.664 1.536-2.208 2.336-0.384 0.448-0.704 0.896-1.152 1.312-0.832 0.896-1.28 1.44-2.048 2.592l-0.288 0.544-0.64 0.192-0.288 1.184-1.28 1.792-0.992 0.672-2.016 2.848c-1.088 1.504-1.216 3.232-1.216 4.832l-0.32 2.784-0.8 0.064-2.592 1.376c-0.288 0.352-0.512 0.736-0.768 1.12-0.544 0.8-1.024 1.088-1.536 1.44-0.736 0.448-1.536 0.992-2.144 1.856l-2.816 4.16 0.128 0.096-0.544 0.352zM297.312 241.728v0.032h-0.064zM385.408 311.36c0.608 0 1.056-0.064 1.568-0.256 0.352-0.096 0.832-0.288 1.344-0.512l0.608-0.224c0.896-0.448 1.632-0.928 2.4-1.44 0.608-0.384 1.184-0.768 1.792-1.056l0.992-0.448c0.416-0.16 0.8-0.352 1.152-0.48l1.536-0.96c0.576-0.192 0.928-0.448 1.408-0.896 0.096-0.16 0.192-0.256 0.256-0.384l0.576 0.384c-0.128 0.064-0.672 0.352-1.184 0.672-0.16 0.128-0.384 0.288-0.608 0.384-0.896 0.544-1.504 1.12-2.048 1.6-0.224 0.224-0.448 0.448-0.736 0.64-0.544 0.448-1.216 0.8-1.952 1.184v0.064l-0.736 0.224-1.6 1.344-0.512 0.832-0.192-0.16-0.832 0.992c0.064-0.032-0.288 0.096-0.512 0.16-0.608 0.032-0.992 0.096-1.376 0.16l-0.512 0.096c-0.416 0.096-0.992 0.352-1.568 0.704 0.416-0.736 0.512-1.504 0.512-1.952 0.096-0.352 0.128-0.544 0.224-0.672zM256 480c-141.376 0-256-114.624-256-256 0-141.408 114.624-256 256-256 141.408 0 256 114.592 256 256 0 141.376-114.592 256-256 256zM263.84 443.904l1.344-3.52c0.736-1.952 2.464-6.464-0.704-9.984l-1.088-0.672-1.184-0.384-0.032 0.128-0.256-0.32-1.024-0.192c-0.16-0.064-0.448-0.16-0.832-0.288 0.416-0.16 0.608-0.288 0.736-0.352 2.88-1.568 3.456-4.096 3.008-5.92-0.48-2.368-2.784-4.032-5.536-4.16l-7.68-1.152-4.64-1.76-0.192 0.256-0.448-0.768-3.168-1.536c-0.736-0.416-1.632-0.704-2.624-0.8-0.48-0.064-0.992-0.096-1.536-0.096l-2.272 0.032c-0.736 0-1.312-0.032-1.76-0.16-0.416-0.128-0.736-0.384-1.088-0.704l-1.184-3.424-0.544-5.504c-0.064-0.96-0.096-2.112-0.544-3.232-0.512-0.96-1.056-1.472-1.472-1.792-0.896-0.576-1.664-0.768-2.24-0.896l-2.56-0.064h-0.608c-1.312 0.128-2.368 0.608-3.232 0.96-0.704 0.32-1.312 0.576-1.92 0.608-0.064-0.224-0.16-0.448-0.32-0.704l-0.256-0.16c0-0.192 0.064-0.416 0.064-0.576 0.032-0.512 0.096-0.992 0.096-1.376 0.064-0.96-0.064-2.016-0.448-3.072l-1.632-2.784-5.856-5.216-0.96-2.56 0.032-0.704c0.224-2.624 0.512-5.888-1.248-7.84-0.736-0.832-1.76-1.312-2.944-1.376h-0.096l-4.48 0.096-2.112 0.64c-0.544 0.32-1.152 0.736-1.728 1.184-0.128 0.096-0.448 0.192-1.376 0.32l-3.776 0.8c-0.672 0.32-1.248 0.8-1.728 1.408l-1.44 2.144 0.224 0.224-0.544 0.32c-0.736 1.568-1.184 2.624-1.6 3.264-0.8 1.024-2.464 3.136-3.808 4.384-0.256 0.256-0.608 0.544-0.928 0.832-0.832 0.672-1.696 1.408-2.24 2.144-1.568 2.112-1.504 5.536-1.44 8.544 0 0.64 0.032 1.28 0 1.792l-0.768 1.728-8.864 4.416c-1.216 1.12-1.44 2.304-1.408 3.072 0.032 1.824 1.376 2.976 2.176 3.648l0.064-0.032 0.352 2.72c0.384 1.408 0.864 2.528 1.408 3.648 0.48 1.024 0.96 1.952 1.152 2.816 0.128 0.8-0.032 2.432-0.192 3.712-0.064 0.608-0.128 1.184-0.16 1.696v1.888l-4.416-1.024c-0.32-0.224-1.088-0.672-2.208-0.672l-0.96 0.544c2.976 1.312 5.984 2.624 9.024 3.872 0.8 0.32 1.632 0.608 2.464 0.896 24.992 9.632 52 15.136 80.32 15.136 1.408 0 2.688-0.16 4.032-0.192 1.152 0 2.24-0.128 3.36-0.16 1.344-0.032 2.624-0.128 4-0.192-0.512-0.256-0.928-0.32-1.44-0.64l-2.272-2.208c0-0.128 0.064-0.384 0.16-0.704zM134.624 411.424c3.84-0.416 8.096-3.936 9.792-6.944 1.344-2.336 1.6-4.064 1.664-6.624 0.192-4.128-2.144-5.6-3.712-6.592-0.16-0.096-0.352-0.192-0.512-0.32-0.704-1.28-1.888-1.376-2.272-1.376l-0.896 0.16-0.896 0.576c-0.096 0.096-0.192 0.192-0.288 0.288 0-0.032 0-0.096 0-0.16l0.352-3.456c0.128-0.736 0.288-2.528-0.16-4.16l-0.288-0.736-1.216-1.056 0.096-0.096-0.288-0.064-0.64-0.544-0.096 0.352-0.64-0.16 0.064-0.256-0.896 0.032-0.288-0.064v0.096l-1.152 0.256c0-0.064 0-0.096 0-0.16 0.224-1.376-0.896-2.88-2.688-3.136l-0.672-0.032c-1.248 0-2.656 0.544-3.968 1.12l-1.088-0.032-1.056 0.192c-1.408 0.608-2.88 1.632-4.48 3.2l-3.2 3.104c-0.192 0.192-0.928 0.448-1.568 0.672-1.376 0.48-3.072 1.088-4.32 2.592l-0.704 0.864c-0.192 0.224-0.32 0.384-0.448 0.512-0.16 0.16-0.512 0.416-1.12 0.736-0.16 0.128-0.064 0.32-0.224 0.416 0.544 0.512 1.12 1.024 1.664 1.504 0.608 0.544 1.184 1.12 1.824 1.632 5.984 5.152 12.224 10.080 18.752 14.592 0.8 0.544 1.536 1.12 2.336 1.664 0.864 0.576 1.792 1.056 2.656 1.6 0.128-0.032 0.448-0.192 0.576-0.192zM151.008 8.416c-0.736 0.352-1.472 0.672-2.208 1.056l0.192 0.064c0.704-0.352 1.312-0.8 2.016-1.12zM151.968 25.824c-0.8 0.448-1.696 0.768-2.496 1.184-6.624 3.584-13.024 7.52-19.232 11.744-0.736 0.512-1.408 1.056-2.112 1.6-0.672 0.48-1.28 0.96-1.952 1.472 0.16 0.256 0.288 0.64 0.448 0.864 0.352 0.64 0.672 1.216 1.024 1.856 0.448 1.152 0.736 1.952 1.44 2.496l0.288 0.064c0 0.608 0 0.928 0.064 1.216l0.224 0.512h0.032l0.416 0.864c-0.352-0.384-0.416-0.608-0.448-0.736-0.064 1.472 0.064 2.816 0.224 4.224 0.128 1.312 0.288 2.656 0.256 4.16-0.064 1.088-0.448 1.888-0.96 2.88-0.48 0.96-0.992 2.016-1.312 3.36-0.288 1.696 0.096 3.2 1.152 4.352l0.096 0.128 0.96 1.92-0.096 2.688c-0.032 1.632 0.608 2.816 1.12 3.776 0.384 0.736 0.64 1.216 0.608 1.664l-0.032 1.088c-0.256 0.512-0.608 1.216-0.672 2.112-0.064 2.080-0.064 4 0.448 6.112 0.064 0.32 0.224 0.768 0.352 1.248 0.128 0.32 0.224 0.64 0.256 0.832l-0.32 6.656 0.064 0.64c0.064 0.224 0.128 0.48 0.224 0.704-0.128 0.416-0.192 0.736-0.288 1.088-0.768 0.064-1.376 0.224-1.92 0.576l-1.216 0.832c-0.416 0.288-0.864 0.512-1.312 0.704l-2.816 1.824c-0.864 0.736-1.472 1.408-2.048 2.080-0.48 0.544-1.28 1.44-1.6 1.664l-0.608 0.32c-0.512 0.256-1.088 0.608-1.408 0.608l-1.056 0.128c-0.608 0.128-1.28 0.224-1.92 0.384l-0.896 0.352-1.376 0.928 0.064 0.096-0.64-0.064c-0.672 0.672-0.864 1.184-0.992 1.568-0.288 0.832-0.256 1.664-0.224 2.24l-0.032 2.144c-0.8 0.512-1.344 0.832-1.792 1.44l-0.704 1.408v-0.032c-0.032 0-0.256 0.192-0.448 0.32-0.512 0.384-1.152 0.896-1.696 1.728l-1.76 4.288h0.032l-0.192 0.352-2.176 4.704c-0.352 0.608-0.672 1.12-1.024 1.664-0.544 0.768-1.056 1.504-1.696 2.144-0.32 0.096-0.672 0.32-1.024 0.608l-1.92 3.808c-0.8 0.8-1.216 1.408-1.376 2.144-0.32 1.056-0.416 2.272-0.224 3.392l0.256 1.6c0.096 0.384 0.256 0.928 0.608 1.44 0.288 0.736 1.088 1.248 2.112 1.344-0.032 0.096-0.096 0.128-0.16 0.16 0.032 0 0.032-0.032 0.032-0.032s-0.128 0.096-0.256 0.16l-0.992 0.864c-1.344 1.6-1.28 2.784-1.056 3.552l0.16-0.032 0.288 0.672-0.032 0.384c-0.096 0.384 0 0.992 0.064 1.472l0.224 0.768h0.032l0.512 1.504h0.064l0.768 1.216 2.016 2.208c0.608 0.352 1.184 0.576 1.824 0.576 0.096 0.16 0.192 0.288 0.288 0.384l0.224 0.256-0.064 0.512 0.352 0.288h-0.192l0.064 1.792 0.416 1.28c0.736 1.088 1.856 1.216 2.528 1.248l0.032 0.128c0.704 0.256 1.024 0.32 1.248 0.352l0.16 1.28-1.056 6.368-2.496 1.056-0.384 0.672-0.192-0.192-0.608 0.96-0.704 2.336c-0.032 0.384-0.096 0.832-0.192 1.152l-0.576 0.384c-0.096 0.128-0.192 0.256-0.256 0.352h-0.128c-0.256-0.192-0.48-0.352-0.64-0.512-0.544-0.832-1.28-1.856-2.304-2.656l-0.704-0.32-2.976-0.832-1.376 0.064-2.432-0.128-1.312 0.288c-1.056 0.64-1.504 1.664-1.888 2.496 0 0 0 0 0 0.032-0.416 0.096-0.864 0.192-1.312 0.48l-3.712 3.584c-2.816 2.56-5.728 5.44-6.752 8.032-0.544 1.408-0.416 2.72-0.32 3.712l-8.096-0.384c-1.44 0.16-2.112 0.576-2.624 0.96-0.64 0.512-1.056 1.024-1.44 1.504-0.16 0.224-0.448 0.608-0.576 0.704-0.576-0.288-0.896-0.352-1.312-0.352l-1.408 0.352 0.288 0.96-1.056-0.544-0.672 0.64c-0.256 0.256-0.48 0.608-0.672 0.992-0.608 0.608-0.896 0.8-1.184 1.056-0.48 0.448-0.96 0.896-1.344 1.344l-1.056 0.384-0.064-0.032-0.704 0.032-1.216-0.608-2.048-1.984-1.856-0.96-1.92-0.064-0.48 0.064-0.064-0.064-1.024 0.064c-1.12 0.128-1.92 0.416-2.496 0.864l-3.84 3.36c-0.256 0.064-0.544 0.064-0.864 0.064h-0.832c-0.704 0-1.152 0.096-1.472 0.224l-0.864 0.224-1.088 0.512c-0.064 0.896-0.064 1.856-0.128 2.752-0.064 0.96-0.096 1.856-0.128 2.784-0.288 4.512-0.704 8.928-0.704 13.504 0 45.248 13.568 87.328 36.736 122.592 0.448 0.64 0.768 1.344 1.216 2.016 0.48 0.672 0.96 1.344 1.44 2.016 0.704-0.32 1.216-0.672 1.632-0.992 0.576-0.448 0.768-0.608 1.44-0.608 0.672 0.032 1.248 0.192 1.888 0.384 2.208 0.672 5.312 0.608 7.040-1.984 0.512-0.672 0.864-1.408 0.992-2.048 0.384-1.216 0.416-2.752 0.48-4.256 0.032-1.536 0.096-2.976 0.576-3.936 0.128-0.256 0.416-0.704 0.64-1.088l0.32-0.576c0.896-1.952 1.696-3.296 2.752-3.424 0.416-0.032 0.896-0.128 1.44-0.224 0.832-0.128 1.856-0.128 2.624-0.288l2.496 2.496c0.192 0.608 0.128 1.28-0.192 2.048-0.192 0.352-0.512 0.768-0.896 1.248-0.832 0.992-1.952 2.336-2.016 4.512-0.064 2.144 0.928 3.84 2.976 4.96l3.264 1.44c0.416 0.288 1.12 3.232 1.344 4.192l0.256 1.024c0.064 0.16 0.096 0.416 0.16 0.576-0.8 1.152-1.408 2.336-1.952 3.52-0.352 0.704-0.672 1.376-1.024 2.016-0.928 0.608-2.048 1.408-2.496 2.88-0.192 0.64-0.192 1.184-0.192 1.696l-0.064 0.704c0 1.44 0.192 2.816 0.608 4.256l1.28 3.456c0.192 0.48 0.384 0.992 0.32 1.248l-1.984 5.152c-0.064 0.064-0.064 0.288-0.064 0.384 1.312 1.376 2.624 2.784 3.968 4.128 2.176-0.032 3.040-0.672 3.808-1.824 1.088-0.16 1.632-0.416 2.048-0.576 0.256-0.128 0.416-0.192 0.576-0.256 0.448 0.736 1.184 1.6 2.496 1.696v0c1.568 0 2.848-0.896 3.712-1.664 0.384-0.288 0.864-0.608 1.344-0.896 0.448-0.288 0.864-0.576 1.184-0.8 1.152-1.12 1.312-1.28 1.856-1.44l0.704-0.096c0.352 0 0.704 0.032 1.056 0.032l0.704 0.064c1.056 0 1.664-0.224 2.144-0.384l1.12 0.032c1.312 0 2.752-0.896 2.88-2.88l0.064-0.64c0.096-0.896 0.224-2.016 0-3.040 0-0.384-0.16-0.928-0.352-1.472-0.096-0.256-0.224-0.64-0.224-0.768 0-0.096 0-0.224-0.032-0.384l1.248 0.032c0.672 0.064 1.056 0.096 1.44 0.096 0.672 0 2.752 0 3.424-1.824 0 0 0-0.032 0-0.032 0.48 0.32 0.8 0.608 0.96 0.768 0.864 0.928 1.696 1.824 2.464 2.976l1.152 2.432 1.792 0.96 2.464 0.256c0.608 0 1.024-0.096 1.44-0.192 1.664-0.448 2.624-0.928 3.36-1.6l1.472-2.080c0.672-1.696 0.832-2.976 1.024-4.32l0.224-1.184c0.064-0.16 0.064-0.224 0.032-0.224 0.48-0.256 1.12-0.672 1.504-1.44 0.288-0.448 0.384-0.96 0.416-1.344 1.504-2.144 1.728-4.032 1.824-6.24 0.032-0.352 0.064-0.576 0.064-0.672 0.416-0.064 0.928-0.16 1.6-0.416 2.272-0.8 3.776-2.176 5.12-3.392 0.768-0.704 1.472-1.344 2.176-1.76 0.256-0.128 0.48-0.192 1.056-0.192l1.92 0.032c0.704 0 1.248-0.032 1.856-0.192 0.704-0.096 1.728-0.512 2.528-1.728 1.216-1.824 1.376-4.672 1.024-6.592-0.224-1.184-0.064-2.464 0.096-3.872 0.128-0.8 0.224-1.632 0.256-2.464l0.032-0.768c0.064-0.576 0.128-1.28-0.032-2.016-0.032-0.288-0.128-0.64-0.256-1.024 0.16-0.032 0.352-0.064 0.544-0.096 1.056-0.128 2.24-0.32 3.296-0.768l-0.16-0.416 0.992-0.672 0.096 0.128c0.448-0.384 0.768-0.832 1.056-1.28 0.192-0.288 0.576-0.832 0.736-0.96 1.056-0.128 1.568-0.256 2.048-0.48v-0.032l1.312-0.384c1.632-1.472 4.064-5.792 2.144-9.088l-1.504-0.992h0.032c-0.512-0.512-1.024-0.992-1.76-1.248l-4.352-0.16-0.64 0.096c-1.216 0.352-2.4 0.96-3.2 1.664l-0.48 0.48-7.072-0.32-0.768 0.096c-1.472 0.384-3.456 1.632-4.224 3.744-0.576 1.568-0.352 3.264 0.672 4.768 0.448 0.704 0.96 1.12 1.376 1.472 0.192 0.16 0.32 0.32 0.48 0.448-0.48-0.224-1.024-0.352-1.632-0.384l-5.312-0.544-7.744-0.32c0.128-0.032-0.32-0.256-0.736-0.448-0.672-0.352-1.344-0.608-1.792-0.736l-0.736-0.096c-0.352 0-0.672 0.064-0.992 0.192 0.128-0.224 0.256-0.48 0.384-0.736 1.12-2.56 0.544-4.64 0.064-6.176 0.896-0.224 1.76-0.352 2.528-0.352l3.584 0.128 0.64-0.032c0.672-0.16 1.728-0.64 2.080-2.048l1.856 0.064c1.024 0 2.656-0.192 3.328-1.568l0.256-1.344-0.512-3.84c-0.608-2.080-1.312-4.704-3.104-6.592-1.312-1.504-3.392-2.496-6.24-2.88l-6.272-0.288c0.032-0.032-0.64-0.032-1.184-0.096-1.664 0-2.816 0.896-3.072 2.208l-0.256 1.824 0.256 0.16h-0.064v2.432h-0.064c-0.032-0.064-0.64-0.608-1.312-1.152l-0.512-0.416c-0.832-0.736-1.632-1.28-2.336-1.824-1.024-0.736-1.856-1.344-2.784-2.4l-1.92-2.464 0.096-0.064 0.224-1.376-0.512-3.168c-1.12-1.984-2.56-2.976-4.032-3.104l-3.744 0.416-2.528-0.32c-0.512-0.416-0.992-0.896-1.376-1.44-0.32-0.448-0.512-1.344-0.704-2.208-0.384-1.728-0.928-4.096-3.136-5.312l-1.376-0.384c0.576-2.944 0.704-5.28 0.512-7.136-0.224-1.504-0.832-2.848-1.408-4l-0.288-0.672c-0.672-1.376-1.92-1.728-2.496-1.888-0.384-0.256-0.8-0.448-1.12-0.608l-0.224-0.288-0.992-0.768 0.32-0.288c-0.64-0.736-1.44-1.472-2.272-2.208-0.832-0.768-1.728-1.6-2.496-2.464-0.128-0.16-0.448-0.992-0.576-1.472-0.256-0.704-0.544-1.44-0.832-1.984l-0.128-0.224c0.896-0.864 1.504-1.472 1.824-2.24 0.256-0.672 0.256-1.408 0.256-1.952 0-0.832 0.192-1.952 1.28-4.192l0.448-0.192c0.096-0.32 0.192-0.768 0.32-1.184 0.064-0.224 0.096-0.48 0.16-0.64 0.544-0.832 1.152-1.824 1.248-3.296 0-0.512 0.032-0.928 0.064-1.344 0.064-0.896 0.128-1.824 0.032-2.624-0.096-1.024-0.544-1.92-0.864-2.528-0.128-0.256-0.352-0.672-0.352-0.768l-2.272-1.184v-0.032l-1.568-0.8-0.96 1.152c-0.768 0.16-1.664 0.544-2.336 1.408l-2.944 2.592c-2.080 1.216-5.344 3.072-5.504 7.296 0 0.416-0.064 0.896-0.16 1.376-0.096 0.704-0.224 1.472-0.256 2.24l-0.064 0.48-1.824-1.344c-0.8-0.48-1.536-0.672-2.24-0.672l-1.088 0.16c-1.152 0.32-1.92 1.056-2.368 2.24-1.088 0.448-1.856 0.704-2.592 0.704h-0.928c-0.48 0.16-0.8 0-1.12 0 0.576-1.984 0.512-3.648-0.256-4.864-1.312-2.176-3.552-3.456-6.304-3.52-0.192-0.032-0.512-0.064-0.736-0.064-0.352 0-1.376 0-2.304 0.672-1.28 0.736-1.376 2.4-1.44 3.104-0.608 0.608-0.864 0.736-1.12 0.864-0.48 0.224-1.056 0.448-1.6 0.832-0.448-0.192-1.344-0.384-2.24-0.608-0.928-0.192-1.888-0.384-2.656-0.736l-2.752-2.112-3.52-3.552c-0.48-0.416-0.864-0.704-1.216-0.96-0.256-0.16-0.608-0.384-0.704-0.512-0.352-0.576-0.384-0.832-0.384-0.832s0.064-0.32 0.8-0.992l1.056-1.12 0.224-0.832c0-0.064 0.064-0.192 0.064-0.352l0.096-0.32h-0.064c0-0.224 0-0.48-0.064-0.768-0.192-0.928-0.704-1.44-1.056-1.728-0.096-0.8-0.064-1.504-0.032-2.688 0.256-4.48 1.056-7.552 2.496-9.568 0.448-0.256 0.896-0.544 1.248-1.056 0.416-0.384 1.12-0.992 1.824-1.568 0.448-0.384 0.864-0.736 1.344-1.152 1.472-1.376 2.272-1.92 4.352-1.92l2.752 1.184 1.312 0.896c0.992 0.576 1.568 0.896 2.176 1.152 0.384 0.192 1.056 0.8 1.12 1.088 0.096 0.384 0.064 0.768 0.064 1.184 0 0.576 0.032 1.12 0.096 1.568 0.416 2.784 2.784 5.024 6.144 5.76l2.752 0.352c1.536-0.032 2.752-0.096 3.808-0.736l1.12-2.016 0.064 0.032 0.256-1.152c0-0.8-0.16-1.632-0.448-2.304-0.128-0.416-0.48-0.96-0.768-1.472-0.384-0.608-0.544-0.864-0.512-1.216l0.096-1.568c0.192-2.464 0.416-5.28-0.96-7.552-0.096-0.384-0.256-0.8-0.576-1.28-0.064-0.096-0.16-0.224-0.256-0.352l0.736 0.032c0.16 0.128 0.288 0.256 0.448 0.352 0.256 0.224 0.512 0.416 0.832 0.64l1.568 0.736c0.48 0.128 0.96 0.224 1.472 0.224l0.896-0.064c0.96-0.224 1.568-0.672 1.984-1.056l1.504 0.096 0.608-0.064c1.568-0.32 3.232-1.6 4.256-3.328 1.024-1.664 1.344-3.488 0.896-5.088-0.128-0.416-0.384-0.832-1.056-1.792-0.128-0.224-0.32-0.448-0.384-0.64l-0.096-0.64c-0.224-0.8-0.16-2.528-0.064-3.744l0.064-1.408c0-0.192 0-0.576 0.032-0.96 0-0.32 0-0.608 0.032-0.864-0.032 0.064 0.448-0.192 0.672-0.384l0.512-0.352c0.832-0.672 1.92-1.92 2.272-2.4 0.064-0.096 0.32-0.512 0.576-0.928 0.832 0.064 1.568 0.32 1.92 0.512 0.32 0.192 0.64 0.32 0.96 0.448l1.568 0.48 0.768-0.16c0.192 0.128 0.384 0.224 0.576 0.288l0.448 0.608 2.176 1.056c0.832 0 1.44-0.384 1.856-0.704l2.368 0.064 0.736-0.064c1.632-0.48 2.56-1.344 3.232-2.24 0.192 0.512 0.416 1.152 0.768 1.728 1.088 2.048 2.912 3.232 4.384 4l3.744 2.176c0.512 0.544 1.312 1.28 2.24 1.632l1.056 0.192c1.024 0 2.464-0.48 3.456-2.752 0.064 0 0.288-0.224 0.48-0.544l0.576 1.6c0.736 1.056 1.952 1.632 3.52 1.76v0c1.12 0 2.016-0.32 2.752-0.928l1.344-1.472c0.256-0.384 0.512-0.8 0.704-1.184 1.152 0.704 2.144 1.184 3.328 1.184l1.184-0.224 4.64-2.016v0.064c0.416 0.288 0.896 0.8 1.216 1.152 1.088 1.216 2.56 2.784 4.704 2.848 0 0 0 0 0.032 0 1.6 0 2.464-1.088 3.008-1.792 0.32-0.448 0.64-0.864 0.832-1.088 0.224-0.192 0.576-0.48 0.672-0.544 1.408 0.16 2.528-0.032 3.328-0.704 0.864-0.768 1.44-1.344 1.728-2.688 0.032-0.128 0.096-0.512 0.192-0.928 0-0.064 0-0.096 0-0.128 0.256 0.032 0.448 0.032 0.64 0.064 1.76 0.192 3.36 0.16 4.48-0.672 0.992-0.64 1.44-1.504 1.728-2.112l2.432-1.632 2.656-0.224 1.408-0.576c0.736-0.672 2.912-1.728 4.608-2.144l1.888 0.096c1.472 0 2.464-0.736 3.008-1.088 1.248-0.768 2.144-1.664 2.912-2.496 0.352-0.32 0.672-0.64 1.024-0.928 0.256-0.256 0.448-0.416 0.64-0.48 0.544-0.416 1.28-0.896 1.984-1.856l2.56-3.648c-0.096 0.128-0.192 0.256-0.384 0.48 0.128-0.224 0.288-0.448 0.416-0.672 0.704-1.056 1.056-2.016 1.28-2.848l0.192-1.696-0.288-1.984c-0.192-0.576-0.512-0.992-0.8-1.28 0.832 0.064 1.568 0.128 2.208 0l0.96-0.288 0.416-0.864 0.224 0.256 0.672-0.576 0.8-1.248c0.032-0.16 0.032-0.256 0.064-0.384 0.384 0.64 0.96 1.376 1.792 1.824l1.6 0.416c1.408 0 2.368-0.832 2.912-1.408l1.568 0.128c1.76-0.288 3.552-0.992 4.704-1.728 0.448 0.096 0.672 0.096 0.928 0.096l0.736-0.096c1.376-0.288 2.24-1.12 2.944-1.856 1.088-0.768 3.008-0.896 4.384-0.96 0.576-0.032 1.12-0.064 1.6-0.096 0.32-0.064 0.608-0.096 0.864-0.16 1.088 0.064 1.664 0.096 2.24 0.224 1.472 0.352 3.296 0.608 4.832 0.128 1.92-0.544 3.072-2.144 3.936-3.488 0.256-0.352 0.512-0.672 0.768-1.056 0.128-0.128 0.48-0.352 0.96-0.736l0.544-0.352c0.48-0.384 1.216-0.512 1.952-0.672 0.768-0.128 1.504-0.32 2.144-0.576 0.256-0.16 0.48-0.224 0.672-0.256 0.736-0.224 1.696-0.544 2.496-1.408 0.672-0.896 0.928-2.080 0.768-3.552l0.032-0.512-0.064-1.28 0.096-1.024c0.16-2.24 0.384-4.8-0.896-7.040-0.672-1.088-1.44-1.952-2.432-3.008l-2.304-1.728-0.096 0.128 0.096-0.288-0.736-0.416c0.064 0-0.416-0.8-0.672-1.152l-0.64-0.992c-0.64-0.896-1.632-1.952-2.464-2.752l-0.448-0.416c-0.128-0.128-0.48-0.448-0.864-0.736-0.032 0-0.064 0-0.096-0.032v-0.16c-0.288-0.672-0.448-0.928-0.576-1.152-0.288-0.96-0.192-1.888-0.096-2.752 0.064-0.544 0.096-1.088 0.096-1.6 0.128-1.792-0.032-3.52-0.224-5.184l-0.064-0.704c-0.064-0.736-0.064-1.504-0.064-2.24-0.032-1.344-0.032-2.624-0.192-3.904 0.032-1.088-0.64-1.856-0.928-2.24l-0.256-0.544-1.728-2.528 0.16-0.32-1.568-1.76c-1.408-1.376-2.496-2.368-2.912-3.488-0.064-1.184-0.16-2.336-0.992-3.2-0.832-0.928-2.176-1.6-3.488-2.304-0.64-0.288-1.248-0.608-1.632-0.928-0.576-0.352-0.96-0.512-1.28-0.608l-2.848-2.080c-0.416-0.512-1.344-0.832-2.112-1.12-0.256-0.128-0.64-0.256-0.736-0.352l-1.024-0.8c-1.728-1.376-3.104-2.496-4.096-4.096 0.032-0.8 0-1.312-0.128-2.048-0.448-2.080-0.864-4.832-0.768-6.368 0.128-0.992 0.224-1.856-0.192-2.72-1.504-2.144-3.744-3.36-5.76-4.416-0.608-0.384-1.152-0.672-1.6-0.928-0.576-0.352-1.088-1.056-1.6-1.728-0.416-0.512-0.768-0.96-1.152-1.344-1.088-1.248-2.016-2.624-2.976-4.096-1.152-1.696-2.368-3.52-4.032-5.12 0-0.16-0.096-0.416-0.192-0.672l-0.448-0.64c-0.544-0.512-1.184-0.736-1.632-0.864-0.416-0.512-0.928-1.024-1.728-1.216-1.088-0.416-2.4-0.352-3.392-0.352 0.16-0.192 0.32-0.416 0.416-0.608 0.16-0.256 0.32-0.704 0.48-1.088l0.288-0.544c0.544-0.576 0.928-0.928 1.248-1.472 1.408-2.592 0.096-4-0.608-4.736l-0.608-0.736c-0.832-0.864-1.824-2.016-2.848-2.688l-0.768-0.416c-0.544-0.672-1.568-1.44-2.624-1.76l-2.912-0.416-0.8 2.4 0.128-2.336-2.624-0.16c-1.28 0-2.432-0.032-3.488-0.224l-0.128 0.224-0.288-0.448-0.96-0.576 0.256-3.424c0.064-0.512 0-1.28-0.224-2.016l-2.688-2.112h-0.736c-2.464 1.344-5.024 2.496-7.424 3.776zM141.792 211.328c-0.8-0.832-1.824-1.408-3.168-1.728l-3.008-0.352c-0.832 0-1.408 0-1.952-0.064-0.8 0-1.728-0.16-2.72-0.288-0.992-0.16-1.696-0.16-2.336-0.16-0.8 0-1.536 0.128-2.112 0.352-1.408 0.64-2.56 1.536-3.616 2.432-0.576 0.448-1.12 0.896-1.664 1.248l-0.64 0.096c-2.336 0.416-3.488 0.608-4.16 1.44l-2.016 0.48-0.704-0.032-2.656 0.384c-1.44 0.608-2.496 1.696-3.488 2.624-0.512 0.48-0.992 0.992-1.344 1.152-0.352 0.224-1.024 0.352-1.568 0.448-1.024 0.16-2.272 0.384-3.488 1.056-0.064 0.032-0.896 0.512-1.536 0.992-0.16 0.128-0.352 0.224-0.512 0.352l-0.8-0.032c-0.896 0-1.696 0.256-2.464 0.768-0.672 0.48-1.216 1.088-1.664 1.568-0.128 0.128-0.224 0.288-0.352 0.384l-2.624 0.96-0.064 4.48c0.256 0.096 0.512 0.288 0.768 0.416 0.448 0.288 0.896 0.544 1.376 0.736 0.992 0.384 1.952 0.608 2.88 0.608l1.312-0.16 1.856-0.704 3.456-2.304c0.48-0.32 0.832-0.608 1.088-0.928 0.32-0.032 0.672-0.064 1.056-0.096 1.44-0.128 2.88-0.288 4.064-0.896 0.48-0.32 0.864-0.48 1.248-0.64 0.672-0.32 1.376-0.672 2.016-1.152 0.32-0.416 0.544-0.768 0.736-1.056h0.352l0.832-0.064c0.288-0.064 0.768-0.128 1.472-0.128l3.2 0.064c0.736 0 1.472 0 2.176-0.128 0.896-0.096 1.632-0.32 2.24-0.704l1.28-0.864c0.672-0.64 0.736-0.736 0.896-0.832 1.632-1.024 3.2-1.696 4.8-2.432l1.184-0.544c0.832-0.352 1.568-0.992 2.272-1.632 0.576-0.544 1.152-1.024 1.664-1.248l4.608 0.16 1.824-4.032zM255.84-15.84c-0.064 0-0.224 0.032-0.288 0.032-0.032 0-0.032 0-0.032 0-0.032 0-0.096 0-0.16 0 0.064 0 0.128 0 0.192 0 0.512 0 0.992 0 1.504 0-0.384 0-0.8-0.032-1.216-0.032zM406.048 59.936c-1.792 1.888-2.208 4.064-1.088 5.6l0.032 0.384 1.12 0.544-0.064 0.256c0.224 0.064 0.448 0.128 0.576 0.224l-0.224 0.864c-0.128 1.376-0.224 1.536-0.512 2.112l-0.576 1.12-2.528 1.504 0.096 0.192-0.864 0.448c-0.48 0.576-0.928 1.28-1.44 2.016s-1.12 1.728-1.504 2.048l-3.68 4.192c-0.928 1.184-0.992 2.56-0.992 3.424l-0.224 5.28c0 0.512-0.224 1.088-0.512 1.824-0.384 0.896-0.768 2.016-0.864 3.392-0.128 3.168-0.672 5.728-1.824 8.288-0.992 0.864-1.312 1.664-1.6 2.304-0.096 0.192-0.224 0.416-0.32 0.544-0.128 0.224-0.64 0.576-1.024 0.864l-0.608 0.576c-1.056 0.672-2.432 1.504-2.624 3.776-0.032 1.792-0.064 3.392 0.064 4.992l-0.224 0.064-0.384 8.352c-0.064 0.704-0.224 2.976 1.728 4.352 0.672 0.48 1.376 0.672 1.888 0.864l0.832 0.704c0.448 0.544 0.928 1.152 1.44 1.632 0 0.32-0.096 0.736-0.096 1.024-0.064 0.352-0.064 0.736-0.064 0.896l-0.928 3.488c-0.288 0.736-0.576 1.504-0.736 2.432-0.096 0.672-0.096 1.152-0.096 1.664-0.032 0.32-0.032 0.736-0.064 0.832-0.512 0.576-0.736 0.864-0.864 1.152-0.352 0.896-0.384 1.632-0.352 2.112-0.288 0.224-0.448 0.384-0.704 0.544l-0.736 0.704c-0.992 0.96-2.144 2.016-3.296 3.36l-3.776 6.56-2.368 3.008c-1.056 1.568-2.016 2.976-2.4 4.64v-0.032c-0.032 0-0.224 0.48-0.288 0.736-0.64 2.272 0 3.904 1.92 4.96l-0.064 1.312c-0.096 2.976-0.224 5.76-1.28 7.264-0.448 0.608-0.448 0.608-1.568 0.736l-2.912 0.736c-0.384 0-0.672-0.064-1.28-0.224s-1.28-0.352-2.208-0.416l-3.2-0.16-0.832 0.16c-1.184 0.352-1.984 1.504-1.984 2.816v0.832c0 0.16-0.064 0.512-0.224 0.768-0.064 0-0.192 0-0.288 0.032l-0.992-0.032-1.952 0.224c-1.728 0.288-3.712 0.544-4.992 0.128-1.12-0.32-2.016-0.64-2.88-0.928l-1.76-0.64c-0.672-0.32-1.248-0.64-2.24-0.736h-0.736c-0.16-0.224-0.64-0.384-0.992-0.512v-0.032c-0.8-0.608-2.304-1.728-4.096-1.728l-0.96 0.128-0.384 0.608-0.064-0.128-2.72 1.152c0.288-0.096-0.224-0.288-0.736-0.64-0.64-0.48-1.28-0.672-1.888-0.864-0.192-0.096-0.416-0.128-0.608-0.256-0.96-0.608-2.112-0.64-3.008-0.736h-0.672c-0.8-0.448-1.312-0.672-1.824-0.832h-0.032l0.064-0.224-3.168-0.864c-2.144-0.416-3.488-0.128-4.864 0.832-0.768 0.512-1.28 1.056-1.696 1.632-0.256 0.288-0.672 0.736-0.832 0.8-0.832 0.384-1.216 0.736-1.504 1.088v0c-0.576 0.032-0.96 0.256-1.344 0.544l-0.384 0.608v-0.032l-1.728 2.080c-0.512 0.544-0.704 0.672-0.704 0.672l-2.912-0.224-1.184 0.256c-1.504 0.736-1.44 2.4-1.408 2.976 0 0.128-0.064 0.416-0.16 0.672l-0.384 1.632c-0.992 0.96-1.664 1.856-2.24 2.72l-0.672 0.768c-0.8 0.928-1.6 1.856-2.496 2.848-0.512 0.544-1.28 0.864-2.112 1.216-0.704 0.32-1.344 0.608-1.952 0.928-1.056 0.768-1.696 1.696-1.984 2.72l-0.096 1.152 0.096 0.256-0.224 0.896v2.496l-0.352 0.16-0.352 0.512c-0.128 0.352-0.224 0.704-0.256 0.992l-0.256 0.192-0.128 0.768c0 0.224-0.096 0.448-0.128 0.608-0.992 2.496 0.416 4.768 0.928 5.632 0.544 0.864 1.312 1.248 1.792 1.504-0.096 0.384-0.128 0.896-0.032 1.376 0.16 0.896 0.032 1.888-0.096 3.104-0.128 0.576-0.192 1.248-0.192 1.856-0.032 0.896-0.064 1.76-0.128 2.56l-0.32 0.16c-0.672 0.512-1.12 0.864-1.536 1.184l-1.44 1.888c-0.768 1.76-0.224 3.616 1.44 5.024 0.064 0.096 0.352 0.32 0.608 0.512 0.32 0.544 0.736 1.408 1.504 2.208l1.824-1.6-1.344 1.984 0.032 0.416 0.608 1.568c0.384 0.736 0.512 1.216 0.608 1.952 0.096 0.64 0.384 1.248 0.576 1.6 0.128 0.384 0.192 0.704 0.256 1.088 0.064 0.512 0.16 0.992 0.32 1.472 0.128 0.448 0.288 0.704 0.48 1.024 0.096 0.224 0.256 0.48 0.32 0.704 0.736 2.56 2.56 6.176 5.568 8.128l1.088 0.448 0.128-0.448 0.672 0.64 0.032-0.288 0.32 0.352c0.224 0.032 0.512-0.032 0.736 0 0.192 0.064 0.48 0.16 0.768 0.32 0.32 0.128 0.608 0.256 0.896 0.384l0.768 0.128c0.224 0.288 0.512 0.64 0.736 0.864 0.256 0.384 0.544 0.672 0.768 0.928l0.224 0.352 1.728 2.24c0.256 0.512 0.48 1.184 0.48 1.92l-0.096 0.736c-0.064 0.864-0.128 1.728-0.096 2.528-0.032 0.256 0.032 0.768 0.192 1.216l1.344 2.88c0.32 0.32 0.736 0.768 1.312 1.088l1.056 0.256 1.344 0.032c0.256 0.288 0.512 0.672 0.736 1.024 0.288 0.416 0.576 0.8 0.832 1.184 0.416 0.48 0.864 1.056 1.12 1.472l0.608 1.024c0.448 0.384 0.448 0.384 0.512 0.736l0.736 0.736-0.32 0.032c-0.128 0.288-0.256 0.992 0.032 1.76l0.416 1.248 0.608 0.544-0.032 0.032 0.448 0.64c-0.384 0.512-0.736 1.056-0.8 1.408-0.16 0.384-0.352 0.576-0.416 0.64-0.384-0.16-0.96-1.216-2.464-1.6l-0.992-0.224c-1.472-0.128-2.816 0.16-3.68 0.928-0.608 0.48-1.536 1.664-1.6 3.808l0.224 0.576-0.192 0.992c-0.416 0.16-0.768 0.416-1.184 0.704l-0.928 1.024-0.224 1.952c0.128 0.736 0.64 1.632 1.504 2.080l0.416 0.16c0.064 0.064 0.096 0.16 0.16 0.256 0 0.032 0.032 0.064 0.064 0.064l-0.416 5.248c-0.128 0.64 0.064 1.28 0.128 1.664v0.768c0 0.128 0 0.288 0 0.416l-0.224 0.832c-0.896 0.864-0.992 1.824-0.896 2.496 0.352 1.536 1.504 2.4 2.528 3.072 0.768 0.768 1.888 1.824 4.736 1.664 0.544-0.032 1.088-0.224 1.6-0.384 0.512-0.192 1.024-0.128 1.6 0l0.96 0.192 3.936 0.192 1.952-0.064 0.48-0.448 0.032 0.192 0.832-0.256c1.312 0.064 2.496 0.288 3.712 0.736v0.992l0.48 2.752c0.096 0.448 0 1.248-0.128 1.984-0.064 0.544-0.128 1.088-0.128 1.6l-0.064 1.024c-0.256 0.192-0.672 0.48-0.896 0.64-0.512 0.096-0.48 0.096-0.736 0.128-0.832 0.192-1.504 0.672-2.080 1.472-0.256 0.128-0.704 0.736-1.12 1.344-0.416 0.544-0.832 1.152-1.184 1.344-0.064 0.032-0.096 0.064-0.16 0.064h-0.16c-1.856 0.416-2.784 1.408-3.072 2.752-0.352 1.44 0.224 2.976 1.376 3.904l0.704 0.512c0.608 0.16 0.992 0.224 1.376 0.256 0.608 0.224 0.96 0.352 1.216 0.448l6.496 0.288c0.032 0.064 0.128 0.192 0.224 0.416 0.576 1.056 1.408 1.632 2.624 1.664 0.576 0.128 1.504 0.352 2.016 0.608l0.768 1.216c-0.128 0-0.064-0.096-0.16-0.096l-5.952-0.256c-1.312-0.064-2.752-0.096-3.264-0.384-0.768-0.576-1.792-1.184-2.784-1.728-0.352-0.288-0.768-0.64-1.44-0.768h-0.768v-0.032l-0.064 0.032-0.736 0.064 0.128 0.48-0.8 0.832-0.512-0.384-1.44 2.336-0.288 1.152 0.448 2.016c0.576 1.024 0.896 1.536 1.312 2.016 0.032 0.064 0.096 0.128 0.16 0.16-1.312 0.448-2.848 1.792-3.2 2.816-0.768 2.56 0.064 3.872 0.928 4.544 0.576 0.512 1.248 0.704 1.92 0.832l0.16 0.672c0.096 0.288 0.256 0.768 0.224 0.96l-0.672 0.8-0.512 1.888c0 0.192 0.064 0.352 0.128 0.512-0.576 0.384-0.832 0.832-0.992 1.184-0.096 0.032-0.128 0.032-0.16 0.064l0.544-2.976v-0.64c-0.192-1.088-0.736-1.952-1.216-2.464l-2.24-2.208 0.064-0.448c0.672-0.512 0.992-1.344 0.928-2.4 0.096-0.224 0.128-0.384 0.192-0.576l-0.384-2.336-0.64-1.312-1.568-0.672-2.176-0.256c-0.192-0.672-0.544-1.28-1.312-1.952-1.088-0.896-2.208-0.896-2.944-0.896l-1.568-0.256c-0.928 0-1.728 0.288-2.432 0.832l-0.416 0.416v0.128l-0.288 0.256c-1.088 1.44-0.96 2.752-0.736 3.392 0.352 0.864 0.992 1.568 1.888 2.016 0.032 0 0.032 0.032 0.064 0.032l-0.352 0.448c-0.48 0.64-0.704 1.28-0.864 1.728 0 0.032-0.128 0.16-0.256 0.288l-0.864 1.056c-0.384 0.48-0.672 0.928-0.864 1.6l0.224 2.208 2.048 1.28 2.752 0.416c0.864 0.928 1.504 1.568 2.112 2.144 0.544 0.544 1.088 1.056 1.472 1.504 1.12 1.088 2.176 1.984 3.52 1.984l0.576 0.032c-0.224 0.32-0.768 0.544-0.832 0.928l-0.192 1.056-0.128 0.544-0.192 2.208-1.024 1.152-0.576 1.344 0.16 0.032-0.16 0.064v0.032l-0.352 0.16c-0.384 0.864-0.384 1.6-0.384 1.984l0.448 1.216 0.704 1.312c0.768 0.768 1.856 1.216 3.008 1.216l1.152-0.16c0.416-0.064 0.8-0.224 1.056-0.448l2.688 0.128c0.288 0.512 0.384 0.736 0.512 0.96 0.384 0.864 1.024 2.144 2.56 2.88l1.6 0.384c1.952 0 3.424-1.504 3.776-2.944 0.384-1.344-0.032-2.656-0.928-3.552l-0.192-0.16h0.224l1.792-0.608c0.448-0.352 0.64-0.8 0.768-1.216 0.32-0.288 0.672-0.672 0.832-1.312 0.192-0.736 0.16-1.248 0.16-1.6l-0.224-1.984-0.736-1.344c0.928-0.576 1.792-1.408 2.496-3.136h-0.032l0.416-0.288c0.064-0.256 0.128-0.544 0.128-0.736 0.928-0.384 1.76-0.768 2.368-1.632l1.632-2.656c0.672-1.216 0.768-2.336 0.864-3.136 0-0.064 0-0.192 0-0.256 0.352-0.096 0.8-0.224 1.408-0.448l1.12-0.512h0.192c1.344-0.544 2.016-1.376 2.016-2.528 0.064-0.768-0.224-1.408-0.48-1.888 0.064-0.224 0.064-0.704-0.032-1.248-0.256-0.736-0.416-1.344-0.608-1.888 0-0.032 0-0.064-0.064-0.128l2.048 1.984 1.152 0.576 1.12 1.28c0.096 0.256 0.096 0.512 0.128 0.768l-0.032 0.96v0.672c0.128 0.608 0.416 1.056 0.608 1.408l0.384 0.64c0.288 0.448 0.832 1.44 2.016 1.696 0.608 0.192 1.216 0.224 1.76 0.256 0.736 0.064 1.216 0.256 1.888 0.672l0.096-0.192 0.416 0.256-0.064 0.256 0.768 0.128c0.672 0.352 1.184 0.576 1.792 0.672l0.576 0.288 4.128 1.632c0.448 0 0.768-0.096 0.992-0.16l0.576 0.032c0 0.128 0 0.256 0 0.384v0l-1.696 1.568c-2.080 1.952-2.944 4.352-2.496 6.816-0.096 0.288 0.192 0.864 0.416 1.248 0.032 0.544 0.384 1.504 0.64 2.336l0.128 0.576c0.096 0.128 0.16 0.224 0.224 0.352-0.48-0.128-1.024-0.288-1.536-0.288l-1.92 0.096-1.6 0.512-1.472 1.056c-0.352 0.352-0.576 0.704-0.832 1.152l-0.384 0.544-0.992 0.992-0.736 1.44c-0.064 0.704 0.032 1.312 0.128 1.696-0.032 0.352-0.032 0.992 0.256 1.696 0.512 1.184 0.768 3.2 0.352 4.672l-0.928 1.984-0.288 0.704c-0.576 1.088-1.12 2.464-1.248 4.096-0.032 1.344 0.256 2.112 0.736 2.688l2.016 0.832 0.736-0.064c0 0.064 0.16 0.128 0.416 0.288-0.224-0.128-0.192 0.032-0.032 0.224 0.64 0.992 1.184 1.568 1.92 2.048s1.408 0.672 1.952 0.832c0.224 0.064 0.48 0.128 0.64 0.224 0.896 0.32 1.792 0.864 2.048 1.12 0.16 0.544 0.544 1.376 1.248 1.952l1.856 0.672 0.224-0.032 1.792 2.048c0.224 0.128 0.384 0.224 0.576 0.384 0.384 0.416 0.608 0.704 0.864 0.96 0.352 0.288 0.64 0.448 0.832 0.608 0.288 0.16 0.576 0.352 0.672 0.448 0.448 0.736 0.736 1.28 1.184 1.76 0.576 0.608 1.248 1.792 1.376 2.336-0.064 0.768-0.128 1.088-0.128 1.344l0.928 1.92 2.336 1.888c0.064 0.032 0.096 0.128 0.128 0.16 0.64-0.416 1.28-0.768 1.952-1.184 0.704-0.448 1.408-0.832 2.048-1.248 5.792-3.84 11.36-7.968 16.736-12.288 0.672-0.544 1.408-0.992 2.016-1.536 0.672-0.512 1.216-1.088 1.824-1.6-0.16-0.128-0.224-0.256-0.416-0.384-0.416-0.352-0.96-0.64-1.408-0.864-0.192-0.128-0.416-0.224-0.608-0.384-0.672-0.512-1.28-0.864-1.92-1.088l-0.864-0.736c-0.224-0.448-0.512-0.896-0.736-1.312-0.416-0.704-0.672-2.112-0.672-3.488l0.032-0.736c0.032 0.064 0.608-0.224 1.152-0.544l1.12-0.864h0.096l1.568-1.568c0.544-0.832 0.896-1.888 0.992-2.912 0-0.992-0.224-1.696-0.576-2.272l-1.952-1.664c-0.768-0.544-1.216-0.96-1.664-1.504-0.576-0.704-1.152-1.344-1.824-1.92l-0.192-0.128c0.864-1.888 1.376-5.696 0.16-7.936-1.056-2.336-2.56-2.976-3.648-3.040l-1.536-0.064c-0.032 0-0.096 0-0.16 0-0.48-1.28-1.6-3.648-4.32-3.648l-1.92 0.416-1.952 0.832c-0.928 0.672-1.536 1.696-1.952 3.104-0.128 0.16-0.416 0.544-0.576 1.056l-0.512 0.512-2.048 1.376-0.704 0.992c-0.128-0.512-0.224-1.056-0.32-1.376-0.128-0.384-0.224-0.672-0.192-0.864 0-0.224 0-0.448 0-0.64 0.736-0.16 1.568-0.384 2.336-0.896 1.216-0.608 1.728-2.368 1.6-3.68l-0.928-1.952c1.248 0.32 2.496 0.512 3.424 0.64 1.824 0.288 2.912 0 3.776-0.8l0.288-0.544c0.064-0.16 0.224-0.288 0.288-0.416 0.064 0.032 0.064 0.064 0.16 0.064 0.256 0.224 0.704 0.416 1.056 0.576l1.696 1.184c0.32 0.288 0.864 0.64 1.44 0.928l0.128-0.128 2.464 0.864c1.6 0 2.624-0.544 3.392-0.928 0.192-0.096 0.384-0.16 0.512-0.224l0.864 0.128c0.32 0.288 0.928 0.672 1.824 0.768l3.552 1.216c0.256 0.096 0.64 0.288 0.672 0.352 0.064 0.096 0.16 0.16 0.224 0.224l-0.064 0.192-0.352 0.736c-0.16 0.64-0.16 1.312-0.16 2.016-0.096 1.44-0.192 3.328 1.12 4.8 0.928 1.024 2.112 1.632 3.040 2.176l2.88 1.152c1.952-0.256 2.528-1.408 2.752-1.856 0 0.096 0.128 0.032 0.448 0 0.096 0.256 0.192 0.448 0.288 0.64 0.064 0.064 0.032 0.256-0.224 0.704l-2.144 3.616c-0.096 0.608-0.128 1.184-0.032 1.696-1.344 0.224-2.080 1.28-2.368 1.696-0.32 0.416-0.448 0.672-0.576 0.928l-1.152 0.832c-0.096-0.096-0.384 0.032-0.608 0.128l-0.672 0.512-1.216 2.272-0.128 1.664c0.096 0.288 0.128 0.608 0.128 0.864 0.032 0.8-0.032 1.472-0.032 2.144l-0.864 3.648c-0.064 0.896 0.384 1.28 0.48 1.952 0.672-0.608 1.312-1.216 1.952-1.824 1.056-0.928 2.080-1.888 3.168-2.816 2.048-1.92 4.288-3.744 6.272-5.728 0.576-0.576 1.12-1.088 1.728-1.664 0.832-0.832 1.568-1.792 2.4-2.656 0.608-0.608 1.088-1.216 1.664-1.824 37.216-39.584 60.352-92.576 60.928-150.944 0-0.768 0.096-1.504 0.096-2.24v0.032c0-1.088-0.16-2.112-0.192-3.2 0-2.016-0.224-3.968-0.288-5.984-0.032-0.736-0.064-1.472-0.096-2.208-0.128 0.064-0.256 0.128-0.384 0.192l0.192-0.224c0.064-0.096 0.096-0.192 0.16-0.288-0.096-1.504-0.128-3.008-0.224-4.48-0.128-1.44-0.096-2.912-0.224-4.352-5.024-55.296-30.272-104.736-68.288-141.088-0.64-0.672-1.376-1.216-2.016-1.888-0.608-0.576-1.184-1.088-1.824-1.632-0.288 0.544-0.576 0.896-0.704 1.088z" />
<glyph unicode="&#xe63b;" d="M16 480v-512h480v512h-480zM80 0c-17.664 0-32 14.336-32 32s14.336 32 32 32 32-14.336 32-32-14.336-32-32-32zM80 384c-17.664 0-32 14.336-32 32s14.336 32 32 32 32-14.336 32-32-14.336-32-32-32zM368 294.432v-166.432h-32v32h-32v-32h-32v32h-32v-32h-32v32h-32v-32h-32v192h32v-32h32v32h32v-32h32v32h32v-32h32v32h32v-25.568zM432 0c-17.664 0-32 14.336-32 32s14.336 32 32 32 32-14.336 32-32-14.336-32-32-32zM432 384c-17.664 0-32 14.336-32 32s14.336 32 32 32 32-14.336 32-32-14.336-32-32-32z" />
<glyph unicode="&#xe63c;" d="M202.912 96h78.848v-76h-78.848v76zM256.064 425.76c-44.992 0-81.696-13.536-106.112-39.168-20.736-21.792-30.88-50.528-29.28-83.136l0.544-11.424h77.056l1.152 10.688c0.192 1.792 5.44 44.16 56.64 44.16 52.48 0 56.544-32.8 56.544-42.88 0-16.32-15.136-24.544-39.808-36.576-31.136-15.136-69.888-34.016-69.888-86.816v-52.608h78.848v38.912c0 15.648 13.44 23.616 37.152 36.352 30.624 16.416 72.576 38.912 72.576 100.768 0 71.68-55.68 121.728-135.424 121.728z" />
<glyph unicode="&#xe63d;" d="M256 480c-141.376 0-256-114.624-256-256s114.624-256 256-256c141.392 0 256 114.624 256 256s-114.608 256-256 256zM272 112h-48v40h48v-40zM293.152 214.208c-13.984-7.504-21.152-12.96-21.152-22.208v-16h-48v24.832c0 31.184 23.536 42.32 41.92 51.28 14.576 7.104 23.52 11.936 23.52 21.584 0 5.952-2.416 25.312-33.392 25.312-30.24 0-33.312-25.008-33.44-26.080l1.392-0.928h-48l0.096 1.36c-0.912 19.248 5.056 36.208 17.312 49.088 14.416 15.12 36.080 23.12 62.64 23.12 47.072 0 79.952-29.552 79.952-71.872 0-36.512-24.752-49.776-42.848-59.488z" />
<glyph unicode="&#xe63e;" d="M0 480v-512h512v512h-512zM280.416 32h-74.656v71.936h74.624v-71.936zM315.552 205.44c-22.432-12.032-35.136-19.584-35.136-34.4v-36.832h-74.656v49.792c0 49.984 36.672 67.84 66.144 82.208 23.36 11.392 37.696 19.136 37.696 34.592 0 9.536-3.872 40.576-53.536 40.576-48.48 0-53.408-40.096-53.6-41.792l-1.088-10.144h-72.96l-0.512 10.816c-1.472 30.848 8.096 58.048 27.744 78.688 23.104 24.224 57.824 37.056 100.416 37.056 75.456 0 128.16-47.36 128.16-115.2 0-58.528-39.68-79.808-68.672-95.36z" />
<glyph unicode="&#xe63f;" d="M448 248.8v167.2h-96v-87.072l-96.672 80.64-252.256-210.56 35.52-43.296 216.736 180.96 217.088-181.216 35.52 43.264zM64 133.664v-165.664h160v128h64v-128h160v165.152l-192 160.96z" />
<glyph unicode="&#xe640;" d="M416 277.44v138.56h-64v-74.048l-96 90.752-256-240.704h64v-160h384v160h64l-96 85.44zM416 64h-128v128h-64v-128h-128v160l160 141.92 160-141.92v-160zM128 192h64v-64h-64v64zM320 192h64v-64h-64v64z" />
<glyph unicode="&#xe641;" d="M288 64h-64v192h64v-192zM288 320h-64v64h64v-64z" />
<glyph unicode="&#xe642;" d="M256 480c-141.376 0-256-114.624-256-256s114.624-256 256-256 256 114.624 256 256-114.624 256-256 256zM288 96h-64v144h64v-144zM288 288h-64v64h64v-64z" />
<glyph unicode="&#xe643;" d="M507.808 386.4c10.208-38.112 1.696-69.44-25.6-93.952-2.016-2.048-4.416-4.448-7.136-7.168-26.624-22.464-58.688-27.584-96.224-15.296l-167.84-164.448c1.344-4.096 2.72-8.192 4.096-12.256 10.912-38.816 3.072-71.168-23.552-97.024-3.424-3.424-7.168-6.784-11.232-10.208-31.392-21.824-66.528-23.808-105.408-6.112l49.12 48c9.536 10.88 9.536 22.816 0 35.776l-27.648 26.528c-0.672 0.704-2.048 1.696-4.096 3.072-11.616 9.536-22.528 8.544-32.736-3.072l-48.096-48c-2.048 5.472-4.096 11.232-6.144 17.376-11.584 38.112-4.096 70.816 22.528 98.048 26.56 24.448 58.944 32.288 97.184 23.456l172.96 168.512c0 0.672-0.352 1.344-1.024 2.048-12.288 40.16-4.448 73.536 23.52 100.064 3.424 3.392 7.2 6.816 11.296 10.208 31.36 21.792 66.528 23.84 105.408 6.144l-49.12-48c-9.568-10.88-9.568-22.816 0-35.744l27.616-26.56c0.672-0.672 2.048-1.696 4.096-3.072 11.616-9.536 22.528-8.512 32.736 3.072l48.128 48c2.752-6.112 5.12-12.576 7.168-19.392z" />
<glyph unicode="&#xe644;" d="M461.344 288h-56v42.656c0 82.144-67.2 149.344-149.344 149.344s-149.344-67.2-149.344-149.344v-42.656h-56c-10.272 0-18.656-8.384-18.656-18.656v-282.688c0-10.24 8.384-18.656 18.656-18.656h410.688c10.24 0 18.656 8.416 18.656 18.656v282.688c0 10.272-8.416 18.656-18.656 18.656zM255.264 22.4c-20.384 0-39.232 12.8-52.8 26.368l25.056 88.768c-11.776 8.768-19.52 22.688-19.52 38.464 0 26.496 21.504 48 48 48s48-21.504 48-48c0-14.848-6.88-27.904-17.44-36.736l21.504-90.496c-13.6-13.536-32.48-26.368-52.8-26.368zM349.344 288h-186.688v42.656c0 51.456 41.888 93.344 93.344 93.344s93.344-41.888 93.344-93.344v-42.656z" />
<glyph unicode="&#xe645;" d="M188.544 74.080c6.656 5.824 13.728 8.736 21.248 8.736 9.152-0.864 17.056-3.744 23.712-8.736 12.512-13.28 12.512-28.288 0-44.896l-27.456-24.992c-24.992-24.128-53.312-36.192-84.928-36.192-32.48 0.8-60.768 12.864-84.928 36.192-24.16 24.992-36.192 52.864-36.192 83.648 0.8 33.312 12.896 62.016 36.192 86.176l94.912 94.912c29.984 29.088 60.352 45.312 91.168 48.672 31.648 3.296 59.104-5.856 82.4-27.456 6.688-7.488 10.016-14.976 10.016-22.464-0.832-8.352-4.16-16.224-10.016-23.744-14.976-13.344-29.984-13.344-44.896 0-21.696 20-49.984 12.896-84.96-21.216l-93.664-93.696c-11.68-12.448-17.472-26.176-17.472-41.184 0.8-15.872 6.656-28.704 17.472-38.656 12.48-11.68 25.792-17.504 39.968-17.504 14.976 0.8 28.288 6.624 39.968 17.504l27.456 24.896zM511.968 356.352c-0.8-32.48-12.864-60.8-36.224-84.896l-101.152-101.152c-31.584-30.88-63.68-46.24-96.16-46.24-25.792 0.864-49.504 11.616-71.168 32.512-5.824 6.624-8.736 13.76-8.736 21.248 0.832 9.088 3.744 16.96 8.736 23.68 7.52 5.792 15.008 8.736 22.496 8.736 8.32-0.832 15.808-3.744 22.464-8.704 21.632-20 47.456-15.040 77.408 14.976l101.152 99.904c12.48 11.648 18.72 24.992 18.72 39.968-0.8 16.64-7.072 29.984-18.72 39.968-9.984 10.752-21.6 17.408-34.944 19.904-14.112 1.632-27.072-2.944-38.72-13.728l-32.48-31.232c-6.592-5.824-14.112-8.704-22.464-8.704-9.152 0.8-16.608 3.744-22.496 8.736-14.112 13.28-14.112 28.288 0 44.928l32.48 31.232c22.496 22.496 49.568 33.28 81.184 32.48 31.648-1.696 59.136-14.592 82.4-38.688 24.16-25.024 36.224-53.312 36.224-84.928z" />
<glyph unicode="&#xe646;" d="M390.4 224h-6.4v48c0 79.2-64.768 144-144 144-79.2 0-144-64.8-144-144v-48h-6.4c-14.080 0-25.6-11.52-25.6-25.568v-204.832c0-14.080 11.52-25.6 25.6-25.6h300.8c14.048 0 25.6 11.52 25.6 25.6v204.832c0 14.048-11.52 25.568-25.6 25.568zM160 224v48c0 44.096 35.904 80 80 80s80-35.904 80-80v-48h-160z" />
<glyph unicode="&#xe647;" d="M395.637 116.363h-279.272v34.909h279.272v-34.909zM395.637 209.454h-279.272v34.909h279.272v-34.909zM395.637 302.545h-279.272v34.909h279.272v-34.909z" />
<glyph unicode="&#xe648;" d="M0 480v-512h512v512h-512zM395.637 116.363h-279.272v34.909h279.272v-34.909zM395.637 209.454h-279.272v34.909h279.272v-34.909zM395.637 302.545h-279.272v34.909h279.272v-34.909z" />
<glyph unicode="&#xe649;" d="M261.696 400.49c-6.101 0-12.075-0.576-17.963-1.408l6.954-42.368c3.648 0.469 7.254 1.109 11.008 1.109 47.147 0 85.483-38.336 85.483-85.462 0-3.626-0.64-7.104-1.067-10.624l42.389-6.954c0.789 5.76 1.344 11.584 1.344 17.558-0.022 70.678-57.493 128.149-128.149 128.149zM261.696 480c-10.496 0-20.736-1.024-30.805-2.538l6.891-42.070c7.829 1.152 15.766 1.942 23.915 1.942 90.966 0 164.971-74.006 164.971-164.971 0-8-0.768-15.808-1.877-23.51l42.070-6.891c1.472 9.941 2.474 20.032 2.474 30.4 0 114.666-92.971 207.637-207.637 207.637zM256 309.333h-149.333c-23.466 0-42.666-19.2-42.666-42.666v-256c0-23.466 19.2-42.666 42.666-42.666h149.333c23.466 0 42.666 19.2 42.666 42.666v256c0 23.466-19.2 42.666-42.666 42.666zM181.333-10.666c-5.888 0-10.667 4.779-10.667 10.666s4.779 10.666 10.666 10.666 10.666-4.779 10.666-10.666-4.779-10.666-10.666-10.666zM256 32h-149.333v234.667h149.333v-234.667z" />
<glyph unicode="&#xe64a;" d="M408.48 391.552l-80.928 80.864c-4.128 4.128-12.32 7.52-18.176 7.52l-298.72 0.064c-5.856 0-10.656-4.8-10.656-10.656v-490.656c0-5.92 4.8-10.688 10.656-10.688h394.656c5.92 0 10.688 4.768 10.688 10.656v394.688c0 5.856-3.392 14.048-7.52 18.208zM384 10.656c0-5.888-4.768-10.656-10.656-10.656h-330.656c-5.888 0-10.688 4.768-10.688 10.656v426.656c0 5.888 4.8 10.688 10.688 10.688h234.656c5.888 0 10.656-4.8 10.656-10.688v-74.656c0-5.856 4.768-10.656 10.656-10.656h74.688c5.888 0 10.656-4.8 10.656-10.656v-330.688zM320 256v32h-160l-96 64v-160l96 64h128v-96h-32v-96h96v96h-32z" />
<glyph unicode="&#xe64b;" d="M416 288v96l-94.016 96h-257.984v-192c0 0-64-22.784-64-36v-260c0-13.216 10.784-24 24-24h432c13.216 0 24 10.784 24 24v264c0 13.184-64 32-64 32zM96 448h224.896v-64h63.104v-160.288l-101.344-75.712-16.032 12h-49.344l-19.936-12-101.344 75.488v224.512zM32 232l138.656-104-138.656-104v208zM53.312 0l170.688 128h32l170.656-128h-373.344zM448 24l-138.656 104 138.656 104v-208zM128 384h176v-32h-176v32zM128 320h208v-32h-208v32zM128 256h144v-32h-144v32z" />
<glyph unicode="&#xe64c;" d="M96 288h288v-32h-288v32zM96 352h256v-32h-256v32zM0 480v-448h352l128 128v320h-480zM448 160h-96v-96h-320v384h416v-288zM96 160h160v-32h-160v32zM96 224h160v-32h-160v32z" />
<glyph unicode="&#xe64d;" d="M480 352h-448c-17.568 0-32-14.4-32-32v-320c0-17.6 14.432-32 32-32h448c17.6 0 32 14.4 32 32v320c0 17.6-14.4 32-32 32zM480 0h-448v176h448v-176zM480 256h-448v64h448v-64zM64 64h64v-24h-64v24zM160 64h128v-24h-128v24z" />
<glyph unicode="&#xe64e;" d="M391.008 124.672c-3.616 8.96-8.992 16.16-16.192 21.568-2.72 1.344-13.952 5.6-33.728 12.8-22.88 8.512-36.384 13.92-40.448 16.16-5.856 4.064-9.44 11.904-10.784 23.584l2.72 4.032c0.864 0.448 1.312 0.896 1.312 1.376 8.992 8.96 15.744 21.088 20.224 36.384 8.576 31.008 7.2 56.384-4.032 76.16-1.344 2.24-2.688 4.256-4.032 6.080-10.336 12.992-26.272 20.192-47.84 21.536h-3.36c-22.912-1.792-38.656-8.992-47.168-21.568-13.92-18.432-17.28-44.032-10.112-76.864 0.448-2.24 0.896-4.032 1.376-5.376 6.272-16.64 13.248-28.768 20.896-36.384 0.448-0.48 1.12-1.376 2.016-2.72s1.568-2.208 2.016-2.688c1.792-4.96-0.704-11.68-7.424-20.224-1.344-1.792-2.464-2.944-3.36-3.392-10.752-5.408-24.704-10.784-41.792-16.16-20.224-7.232-31.424-11.456-33.696-12.8-7.616-5.856-13.024-13.024-16.16-21.568-3.584-10.784-5.376-23.168-5.376-37.088v-2.016l2.016-1.376c13.888-13.408 59.936-20.128 138.080-20.128 79.104 0 125.152 6.496 138.176 19.52l2.016 2.016v2.016c-0.48 1.824-0.896 5.376-1.344 10.816-1.344 13.44-2.688 22.24-4 26.304zM124 166.272l1.216 0.704c2.304 1.376 5.056 2.944 29.12 11.616-0.288 0.16-0.8 0.384-1.024 0.512-4.864 3.296-7.84 9.888-8.96 19.552l2.24 3.392c0.768 0.352 1.12 0.736 1.12 1.12 7.456 7.424 13.088 17.504 16.8 30.176 7.072 25.76 5.952 46.816-3.36 63.232-1.152 1.888-2.304 3.552-3.424 5.056-8.576 10.816-21.792 16.768-39.68 17.888h-2.784c-19.072-1.472-32.096-7.456-39.2-17.888-11.552-15.328-14.368-36.576-8.416-63.776 0.352-1.888 0.768-3.392 1.152-4.512 5.216-13.824 10.976-23.872 17.344-30.176 0.384-0.384 0.928-1.12 1.664-2.24 0.768-1.12 1.344-1.888 1.696-2.24 1.472-4.128-0.544-9.696-6.176-16.768-1.12-1.504-2.016-2.4-2.784-2.784-8.928-4.512-20.512-8.96-34.688-13.44-16.768-5.952-26.080-9.504-27.968-10.624-6.336-4.864-10.816-10.816-13.408-17.92-3.008-8.96-4.48-19.2-4.48-30.784v-1.696l1.664-1.12c10.016-9.696 40.16-15.168 90.24-16.448 0.128 17.696 2.272 32.384 6.528 45.152 5.056 13.632 13.152 24.512 24.416 33.12l1.152 0.896zM510.88 115.328c-1.088 11.168-2.208 18.464-3.328 21.824-3.008 7.456-7.488 13.408-13.44 17.92-2.24 1.12-11.52 4.672-27.936 10.624-19.040 7.072-30.24 11.552-33.568 13.44-4.864 3.296-7.872 9.888-8.96 19.552l2.208 3.392c0.768 0.352 1.12 0.736 1.12 1.12 7.424 7.424 13.056 17.504 16.8 30.176 7.072 25.76 5.952 46.816-3.424 63.232-1.088 1.856-2.208 3.52-3.328 5.056-8.576 10.816-21.824 16.768-39.68 17.888h-2.816c-19.040-1.472-32.064-7.456-39.168-17.888-11.552-15.328-14.368-36.576-8.416-63.776 0.384-1.888 0.736-3.392 1.12-4.512 5.216-13.824 11.008-23.872 17.344-30.176 0.384-0.384 0.928-1.12 1.664-2.24 0.768-1.12 1.312-1.888 1.696-2.24 1.504-4.128-0.544-9.696-6.144-16.768-1.12-1.504-2.016-2.4-2.784-2.784-0.48-0.224-1.056-0.448-1.504-0.672 20.608-7.552 24.928-9.44 27.2-10.592l2.016-0.96 1.824-1.344c10.688-8.064 18.816-18.784 24.064-31.872 1.984-5.76 3.616-12.768 5.696-32.864 0.32-3.904 0.544-6.272 0.8-7.68l0.48-2.336 0.192-3.232v-0.448c50.432 1.248 80.416 6.528 89.792 15.904l1.6 1.6v1.696c-0.352 1.504-0.736 4.448-1.12 8.96z" />
<glyph unicode="&#xe64f;" d="M391.008 124.672c-3.616 8.96-8.992 16.16-16.192 21.568-2.72 1.344-13.952 5.6-33.728 12.8-22.88 8.512-36.384 13.92-40.448 16.16-5.856 4.064-9.44 11.904-10.784 23.584l2.72 4.032c0.864 0.448 1.312 0.896 1.312 1.376 8.992 8.96 15.744 21.088 20.224 36.384 8.576 31.008 7.2 56.384-4.032 76.16-1.344 2.24-2.688 4.256-4.032 6.080-10.336 12.992-26.272 20.192-47.84 21.536h-3.36c-22.912-1.792-38.656-8.992-47.168-21.568-13.92-18.432-17.28-44.032-10.112-76.864 0.448-2.24 0.896-4.032 1.376-5.376 6.272-16.64 13.248-28.768 20.896-36.384 0.448-0.48 1.12-1.376 2.016-2.72s1.568-2.208 2.016-2.688c1.792-4.96-0.704-11.68-7.424-20.224-1.344-1.792-2.464-2.944-3.36-3.392-10.752-5.408-24.704-10.784-41.792-16.16-20.224-7.232-31.424-11.456-33.696-12.8-7.616-5.856-13.024-13.024-16.16-21.568-3.584-10.784-5.376-23.168-5.376-37.088v-2.016l2.016-1.376c13.888-13.408 59.936-20.128 138.080-20.128 79.104 0 125.152 6.496 138.176 19.52l2.016 2.016v2.016c-0.48 1.824-0.896 5.376-1.344 10.816-1.344 13.44-2.688 22.24-4 26.304z" />
<glyph unicode="&#xe650;" d="M512 76.256c0-7.616-1.28-16.128-3.808-25.472-2.56-10.176-5.088-18.656-7.648-25.472-6.816-13.568-21.664-26.304-44.576-38.208-22.080-12.736-44.576-19.104-67.488-19.104-8.512 0-14.848 0.448-19.136 1.28-8.48 1.728-15.264 3.392-20.384 5.088-1.728 0-3.616 0.448-5.728 1.28-2.112 0.8-3.616 1.248-4.48 1.248-0.832 0-2.080 0.448-3.808 1.28l-3.808 1.28c-1.728 0.832-8.512 3.36-20.384 7.616-3.392 1.728-7.648 3.392-12.736 5.088-2.56 0.832-4.256 1.28-5.088 1.28-28.832 11.040-50.112 21.216-63.68 30.56-32.288 20.384-64.128 46.304-95.52 77.696-34.848 34.88-61.12 67.072-78.976 96.832-11.936 19.52-21.664 40.736-29.312 63.68-1.728 2.56-4.288 8.48-7.648 17.856-1.696 6.752-3.776 13.536-6.336 20.352 0 0.832-0.864 2.56-2.56 5.088-1.728 5.088-3.008 8.896-3.84 11.456-1.696 10.208-2.976 17.408-3.776 21.664-0.864 4.224-1.28 10.624-1.28 19.104 0.8 22.048 6.784 44.576 17.824 67.488 14.432 24.608 27.552 39.488 39.488 44.576 5.088 2.56 13.152 5.12 24.192 7.648 15.296 1.696 23.744 2.56 25.472 2.56h7.648c5.088-3.392 11.872-12.736 20.384-28l10.176-20.384c3.36-5.952 7.648-13.6 12.736-22.944l11.456-19.104 2.56-2.56c1.696-3.392 2.976-5.536 3.84-6.368 2.56-4.256 5.088-8.512 7.648-12.736 1.696-5.088 2.56-8.512 2.56-10.176-0.896-5.088-4.32-11.456-10.208-19.104-9.376-9.344-17.024-15.712-22.944-19.104-10.176-8.48-17.408-15.296-21.632-20.384-6.848-6.784-10.656-12.32-11.488-16.544 0-2.56 0.8-5.088 2.56-7.648l2.528-7.648c0.8 0 1.696-1.28 2.56-3.808 0.8-2.56 1.696-4.256 2.56-5.088l5.088-6.368c17.824-33.12 38.624-61.536 62.4-85.344 26.304-25.472 54.784-46.688 85.344-63.68 0.832 0 3.36-1.28 7.616-3.808 5.088-3.392 8.096-5.088 8.928-5.088 1.696-1.728 4.256-3.008 7.616-3.808 2.56-0.832 5.088-1.28 7.648-1.28 5.92 0.832 11.456 4.256 16.544 10.176 9.344 9.344 15.712 16.992 19.104 22.944 8.48 10.176 15.296 17.376 20.384 21.632 6.816 6.816 12.768 10.176 17.856 10.176 5.088-0.8 8.48-1.696 10.176-2.528 5.088-1.728 9.76-4.256 14.016-7.648 3.392-1.696 6.368-3.808 8.896-6.336 1.728-1.728 8.096-5.536 19.136-11.456 2.528-1.728 6.336-3.808 11.424-6.368s8.928-4.672 11.456-6.368c2.56-0.832 9.376-4.256 20.384-10.176 16.128-9.344 25.024-15.712 26.752-19.104 0.864-2.624 1.312-5.152 1.312-7.712z" />
<glyph unicode="&#xe651;" d="M256 480c-141.376 0-256-114.624-256-256s114.624-256 256-256c141.392 0 256 114.624 256 256s-114.608 256-256 256zM369.040 155.616c-1.136-4.576-2.288-8.368-3.44-11.424-3.040-6.096-9.696-11.792-19.968-17.12-9.904-5.712-19.984-8.56-30.272-8.56-3.792 0-6.656 0.192-8.56 0.576-3.808 0.752-6.848 1.52-9.12 2.288-0.784 0-1.632 0.192-2.576 0.576-0.96 0.368-1.632 0.576-2 0.576s-0.96 0.192-1.696 0.56l-1.712 0.576c-0.768 0.368-3.808 1.52-9.136 3.424-1.52 0.768-3.424 1.52-5.696 2.288-1.136 0.368-1.904 0.576-2.288 0.576-12.944 4.944-22.464 9.504-28.544 13.696-14.464 9.136-28.736 20.736-42.816 34.832-15.616 15.6-27.408 30.064-35.392 43.376-5.344 8.752-9.712 18.272-13.136 28.544-0.768 1.136-1.904 3.792-3.424 8-0.768 3.040-1.712 6.080-2.848 9.136 0 0.368-0.384 1.152-1.152 2.288-0.768 2.288-1.328 4-1.696 5.136-0.768 4.56-1.344 7.792-1.712 9.712-0.384 1.888-0.576 4.752-0.576 8.56 0.368 9.888 3.040 19.984 8 30.256 6.464 11.024 12.352 17.696 17.696 19.984 2.288 1.136 5.888 2.288 10.848 3.424 6.848 0.768 10.656 1.152 11.424 1.152h3.424c2.288-1.52 5.328-5.712 9.136-12.56l4.576-9.136c1.52-2.672 3.424-6.096 5.696-10.272l5.152-8.56 1.136-1.152c0.768-1.52 1.328-2.48 1.712-2.848 1.136-1.904 2.288-3.808 3.424-5.712 0.752-2.288 1.136-3.808 1.136-4.56-0.384-2.288-1.904-5.136-4.56-8.56-4.208-4.192-7.632-7.040-10.288-8.56-4.56-3.808-7.808-6.848-9.696-9.136-3.040-3.056-4.768-5.536-5.136-7.424 0-1.152 0.368-2.288 1.136-3.424l1.136-3.424c0.368 0 0.768-0.56 1.136-1.696 0.368-1.152 0.768-1.92 1.136-2.288l2.288-2.848c8-14.848 17.328-27.616 27.984-38.256 11.776-11.424 24.544-20.944 38.256-28.544 0.368 0 1.52-0.576 3.424-1.712 2.288-1.52 3.616-2.288 4-2.288 0.752-0.768 1.888-1.328 3.424-1.712 1.136-0.384 2.288-0.576 3.424-0.576 2.656 0.368 5.136 1.904 7.424 4.56 4.192 4.192 7.024 7.616 8.56 10.288 3.792 4.576 6.848 7.792 9.136 9.696 3.024 3.040 5.696 4.56 7.984 4.56 2.304-0.368 3.792-0.752 4.576-1.136 2.288-0.768 4.368-1.92 6.272-3.424 1.52-0.768 2.864-1.712 4-2.848 0.768-0.768 3.632-2.48 8.56-5.136 1.136-0.752 2.864-1.712 5.136-2.848 2.288-1.136 4-2.096 5.136-2.864 1.136-0.368 4.192-1.904 9.136-4.56 7.216-4.192 11.216-7.040 11.984-8.56 0.368-1.136 0.56-2.288 0.56-3.424-0.016-3.504-0.576-7.312-1.728-11.488z" />
<glyph unicode="&#xe652;" d="M486.4 480h-460.8c-14.080 0-25.6-11.52-25.6-25.568v-460.832c0-14.080 11.52-25.6 25.6-25.6h460.8c14.048 0 25.6 11.52 25.6 25.6v460.832c0 14.048-11.52 25.568-25.6 25.568zM160 64h-64v32h64v-32zM160 128h-64v32h64v-32zM160 192h-64v32h64v-32zM256 64h-64v32h64v-32zM256 128h-64v32h64v-32zM256 192h-64v32h64v-32zM352 64h-64v32h64v-32zM352 128h-64v32h64v-32zM352 192h-64v32h64v-32zM416 64h-32v96h32v-96zM448 288h-384v128h384v-128z" />
<glyph unicode="&#xe653;" d="M395.648 314.496l-90.496-90.496 90.496-90.496-45.248-45.28-90.528 90.528-90.496-90.528-45.248 45.28 90.496 90.496-90.496 90.496 45.248 45.28 90.496-90.528 90.528 90.528z" />
<glyph unicode="&#xe654;" d="M437.024 405.024c-49.984 49.984-115.52 74.976-181.024 74.976s-131.008-24.992-181.024-74.976c-100-100-100-262.048 0-362.048 49.984-49.984 115.52-74.976 181.024-74.976s131.008 24.992 181.024 74.976c99.968 99.968 99.968 262.080 0 362.048zM414.4 65.6c-42.304-42.304-98.56-65.6-158.4-65.6s-116.096 23.296-158.4 65.6c-42.304 42.336-65.6 98.56-65.6 158.4s23.296 116.064 65.632 158.4c42.304 42.304 98.528 65.6 158.368 65.6s116.096-23.296 158.4-65.6c87.328-87.36 87.328-229.44 0-316.8zM346.528 359.776l-90.528-90.528-90.496 90.528-45.248-45.28 90.496-90.496-90.496-90.496 45.248-45.28 90.496 90.528 90.528-90.528 45.248 45.28-90.528 90.496 90.528 90.496z" />
<glyph unicode="&#xe655;" d="M74.976 405.024c-100-100-100-262.048 0-362.048 99.968-99.968 262.048-100 362.048 0 99.968 99.968 99.968 262.080 0 362.048s-262.080 99.968-362.048 0zM391.776 314.496l-90.496-90.496 90.496-90.496-45.248-45.248-90.528 90.496-90.496-90.496-45.248 45.248 90.496 90.496-90.496 90.496 45.248 45.248 90.496-90.496 90.496 90.496 45.28-45.248z" />
<glyph unicode="&#xe656;" d="M416 74.208c-1.504 34.624-7.488 66.688-18.080 96.096-12 32.416-27.136 60.288-45.248 83.68-19.52 25.632-41.824 47.872-66.688 66.72-24.128 18.080-52.032 33.12-83.712 45.216-29.376 10.528-61.408 16.576-96.096 18.080-3.776 0-6.048-1.12-6.784-3.392-2.272-2.24-3.392-4.512-3.392-6.784v-41.824c0-2.24 0.736-4.512 2.24-6.784 3.008-2.272 5.664-3.392 7.936-3.392 42.944-1.504 83.68-13.568 122.112-36.16 36.96-23.392 66.688-53.152 89.344-89.312 22.592-39.2 34.688-79.936 36.16-122.112 0.768-3.040 1.888-5.696 3.392-7.904 3.040-1.568 5.312-2.336 6.752-2.336h41.92c2.24 0 4.48 1.152 6.784 3.424 2.208 0.736 3.36 2.976 3.36 6.784zM291.584 74.208c-2.976 49.728-21.824 92.736-56.544 128.896-36.896 35.424-79.872 54.304-128.864 56.544-3.008 0-5.28-0.768-6.784-2.24-2.272-2.272-3.392-4.928-3.392-7.968v-41.856c0-2.24 0.736-4.512 2.24-6.752 2.272-2.24 4.512-3.392 6.784-3.392 33.952-2.976 62.592-15.84 85.952-38.464 23.392-24.16 36.16-52.736 38.464-85.952 0-2.208 1.12-4.544 3.392-6.752 3.008-1.504 5.248-2.272 6.752-2.272h41.856c3.040 0.768 5.664 1.92 7.904 3.424 1.504 2.272 2.24 4.48 2.24 6.784zM167.872 99.488c-0.672 9.824-4.256 18.336-10.816 25.568-7.872 7.264-16.416 10.848-25.6 10.848-9.184-0.672-17.728-4.256-25.6-10.848-6.56-7.2-9.856-15.744-9.856-25.568 0.672-9.92 3.936-18.368 9.856-25.632 7.872-6.528 16.416-9.856 25.568-9.856 10.496 0.672 19.040 3.968 25.6 9.888 7.232 8.512 10.848 17.056 10.848 25.6z" />
<glyph unicode="&#xe657;" d="M512 384.16v-320.256c-0.8-26.496-10.144-49.152-28.064-67.84-19.488-18.72-42.080-28.064-67.776-28.064h-320.288c-26.496 0.768-49.12 10.144-67.808 28.064-18.72 19.488-28.064 42.112-28.064 67.84v320.256c0.768 26.496 10.144 49.12 28.032 67.808 19.488 18.688 45.12 28.032 67.84 28.032h306.432c26.528-0.8 62.976-10.144 81.664-28.032 18.688-19.488 28.032-42.080 28.032-67.808zM416.16 63.904c-1.568 35.808-7.744 68.928-18.72 99.328-12.416 33.504-28.032 62.304-46.752 86.496-20.224 26.496-43.264 49.504-68.96 68.992-24.96 18.688-53.792 34.24-86.496 46.752-30.4 10.88-63.488 17.12-99.36 18.688-3.904 0-6.24-1.152-7.008-3.488-2.368-2.336-3.52-4.672-3.52-7.040v-43.232c0-2.336 0.768-4.672 2.336-7.008 3.104-2.336 5.856-3.488 8.192-3.488 44.416-1.568 86.496-14.016 126.24-37.408 38.208-24.192 68.96-54.976 92.352-92.352 23.328-40.512 35.84-82.624 37.376-126.24 0.8-3.136 1.952-5.888 3.488-8.192 3.168-1.568 5.504-2.368 7.008-2.368h43.328c2.304 0 4.608 1.184 7.008 3.552 2.304 0.768 3.488 3.072 3.488 7.008zM287.552 63.904c-3.104 51.392-22.56 95.84-58.464 133.248-38.144 36.608-82.56 56.128-133.216 58.432-3.104 0-5.44-0.8-7.008-2.304-2.368-2.336-3.52-5.088-3.52-8.224v-43.264c0-2.304 0.768-4.64 2.336-7.008 2.336-2.336 4.672-3.488 7.008-3.488 35.072-3.104 64.704-16.384 88.832-39.744 24.192-24.96 37.408-54.528 39.776-88.832 0-2.304 1.152-4.672 3.488-7.008 3.136-1.568 5.44-2.368 7.008-2.368h43.264c3.168 0.8 5.888 1.984 8.192 3.552 1.536 2.336 2.304 4.64 2.304 7.008zM170.656 95.456c-0.768 11.68-5.056 21.792-12.864 30.368-9.344 8.608-19.456 12.864-30.4 12.864-10.88-0.768-21.024-5.056-30.4-12.864-7.776-8.608-11.68-18.688-11.68-30.368 0.768-11.712 4.672-21.824 11.68-30.4 9.344-7.776 19.488-11.712 30.4-11.712 12.48 0.8 22.624 4.704 30.4 11.712 8.608 10.144 12.864 20.256 12.864 30.4z" />
<glyph unicode="&#xe658;" d="M416 480h-416v-512h512v416l-96 96zM96 448h128v-128h96v128h32v-160h-256v160zM416 0h-320v160h320v-160zM160 128h192v-32h-192v32zM160 64h192v-32h-192v32z" />
<glyph unicode="&#xe659;" d="M512 480v-480h-512v480h512zM480 448h-448v-416h448v416zM96 352h192v32h-192v-32zM96 96h128v32h-128v-32zM192 288h96v32h-96v-32zM192 160h96v32h-96v-32zM256 224h96v32h-96v-32z" />
<glyph unicode="&#xe65a;" d="M507.168 5.984c7.328-11.328 6.336-21.696-3.008-31.008-4.608-4-10.304-6.336-16.928-7.008-6.016 0-11.648 2.304-16.992 7.008l-133.76 134.016c-38.624-29.344-81.568-44.32-128.8-44.992-51.264 0-96.512 16.672-135.776 50.016-47.936 41.984-71.904 94.624-71.904 157.984 0 51.328 16.64 96.64 49.92 136 41.952 48 94.528 72 157.76 72 51.232 0 96.48-16.672 135.776-50.016 47.904-42.016 71.872-94.688 71.872-158.016 0-48-14.976-91.008-44.896-128.992l133.76-134.016c0.64-0.64 1.664-1.632 2.976-2.976zM333.472 176c20.608 28.64 31.264 60.64 31.936 96 0 35.328-11.008 67.648-32.928 96.992-31.296 40.64-72.864 60.992-124.8 60.992-35.296 0-67.552-11.008-96.832-32.992-40.64-32-60.928-73.664-60.928-124.992 0-36 10.976-68.352 32.96-96.992 31.936-40.672 73.536-60.992 124.8-60.992 34.592 0 66.56 10.656 95.84 32 10.624 9.312 20.64 19.296 29.952 29.984z" />
<glyph unicode="&#xe65b;" d="M247.84 327.008c-17.664 0-33.792-5.504-48.448-16.512-20.256-16-30.432-36.832-30.432-62.496 0-18.016 5.472-34.176 16.48-48.512 15.968-20.352 36.736-30.496 62.4-30.496 17.28 0 33.28 5.312 47.904 16 5.312 4.672 10.304 9.664 15.008 15.008 10.304 14.304 15.616 30.304 15.936 48 0 17.664-5.504 33.824-16.448 48.512-15.68 20.288-36.416 30.496-62.4 30.496zM0 480v-512h512v512h-512zM396.064 99.488c-2.304-2.016-5.12-3.2-8.448-3.488-3.008 0-5.856 1.152-8.512 3.488l-66.88 67.008c-19.296-14.688-40.768-22.176-64.384-22.496-25.664 0-48.288 8.32-67.904 24.992-23.936 20.992-35.936 47.328-35.936 79.008 0 25.664 8.32 48.32 24.96 68 20.992 24 47.264 36 78.88 36 25.6 0 48.224-8.352 67.872-24.992 23.968-20.992 35.936-47.328 35.936-79.008 0-24-7.456-45.504-22.464-64.512l66.88-67.008c0.384-0.352 0.864-0.832 1.504-1.504 3.68-5.664 3.168-10.816-1.504-15.488z" />
<glyph unicode="&#xe65c;" d="M485.344 416h-458.656c-17.632 0-26.688-9.056-26.688-26.688v-74.624c0-17.632 8-26.688 25.632-26.688h459.712c17.568 0 26.656 9.056 26.656 26.688v80c0 17.568-9.088 21.312-26.656 21.312zM320 328c0-4.416-3.584-8-8-8h-16c-4.416 0-8 3.584-8 8v16c0 4.416 3.584 8 8 8h16c4.416 0 8-3.584 8-8v-16zM384 328c0-4.416-3.584-8-8-8h-16c-4.416 0-8 3.584-8 8v16c0 4.416 3.584 8 8 8h16c4.416 0 8-3.584 8-8v-16zM448 328c0-4.416-3.584-8-8-8h-16c-4.416 0-8 3.584-8 8v16c0 4.416 3.584 8 8 8h16c4.416 0 8-3.584 8-8v-16zM485.344 256h-458.656c-17.632 0-26.688-9.056-26.688-26.688v-74.624c0-17.632 8-26.688 25.632-26.688h459.712c17.568 0 26.656 9.056 26.656 26.688v80c0 17.568-9.088 21.312-26.656 21.312zM320 168c0-4.416-3.584-8-8-8h-16c-4.416 0-8 3.584-8 8v16c0 4.416 3.584 8 8 8h16c4.416 0 8-3.584 8-8v-16zM384 168c0-4.416-3.584-8-8-8h-16c-4.416 0-8 3.584-8 8v16c0 4.416 3.584 8 8 8h16c4.416 0 8-3.584 8-8v-16zM448 168c0-4.416-3.584-8-8-8h-16c-4.416 0-8 3.584-8 8v16c0 4.416 3.584 8 8 8h16c4.416 0 8-3.584 8-8v-16zM485.344 96h-458.656c-17.632 0-26.688-9.056-26.688-26.688v-74.624c0-17.632 8-26.688 25.632-26.688h459.712c17.568 0 26.656 9.056 26.656 26.688v80c0 17.568-9.088 21.312-26.656 21.312zM320 8c0-4.416-3.584-8-8-8h-16c-4.416 0-8 3.584-8 8v16c0 4.416 3.584 8 8 8h16c4.416 0 8-3.584 8-8v-16zM384 8c0-4.416-3.584-8-8-8h-16c-4.416 0-8 3.584-8 8v16c0 4.416 3.584 8 8 8h16c4.416 0 8-3.584 8-8v-16zM448 8c0-4.416-3.584-8-8-8h-16c-4.416 0-8 3.584-8 8v16c0 4.416 3.584 8 8 8h16c4.416 0 8-3.584 8-8v-16z" />
<glyph unicode="&#xe65d;" d="M352 480h-192c-17.664 0-32-14.336-32-32v-448c0-17.664 14.336-32 32-32h192c17.664 0 32 14.336 32 32v448c0 17.664-14.336 32-32 32zM256-13.024c-14.72 0-26.656 11.936-26.656 26.656s11.936 26.656 26.656 26.656c14.72 0 26.656-11.936 26.656-26.656s-11.936-26.656-26.656-26.656zM352 64h-192v352h192v-352z" />
<glyph unicode="&#xe65e;" d="M420.992 376c48-46.656 72-103.68 72-171.008 0-60.672-20.352-113.664-60.992-159.008-47.328-52-105.984-77.984-176-77.984-60.672 0-113.664 20.352-159.008 60.992-52 47.328-78.016 106.336-78.016 176.992 0 20 2.656 40.32 8 60.992 16.672 63.328 53.664 111.328 111.008 144l34.016-58.976c-7.328-4-14.336-8.992-20.992-15.008-42.656-34.016-64-78.016-64-132 0-39.328 12.32-74.336 36.992-104.992 34.016-42.656 78.016-64 132-64 38.656 0 73.664 12.352 104.992 36.992 42.656 33.344 64 77.344 64 132 0 9.344-0.992 19.008-3.008 28.992-8.64 52-35.968 91.36-81.984 118.016l34.016 59.008c16.64-9.344 32.32-21.024 46.976-35.008zM224 224h64v256h-64v-256z" />
<glyph unicode="&#xe65f;" d="M496 384h-364.704l-3.296 16c-1.984 8.992-7.2 16-16 16h-96c-8.8 0-16-7.2-16-16s7.2-16 16-16h64c8.8 0 17.024-7.136 18.272-15.84l27.456-192.32c1.248-8.704 2.272-55.072 2.272-63.84s7.2-16 16-16 23.2 0 32 0h256c8.768 0 16 7.232 16 16s-7.232 16-16 16h-272v34.464l336.064 28.192c8.768 0.736 15.936 8.544 15.936 17.344v160c0 8.8-7.232 16-16 16zM200 56c0-17.673-14.327-32-32-32s-32 14.327-32 32c0 17.673 14.327 32 32 32s32-14.327 32-32zM440 56c0-17.673-14.327-32-32-32s-32 14.327-32 32c0 17.673 14.327 32 32 32s32-14.327 32-32z" />
<glyph unicode="&#xe660;" d="M84.992 169.984c5.312-24.672 13.312-43.328 24-56 12-13.344 29.664-24.992 52.992-35.008 14.656-6.656 28.32-13.664 40.992-20.992 7.328-4.672 18.336-11.008 32.992-19.008 8.672-3.968 15.36-6.304 20.032-6.976 5.344 0 12 2.016 20 6.016 4 2.016 14.656 7.648 32 16.992 12 6.656 25.664 13.664 40.992 20.992 12.672 6.656 20.352 10.656 23.008 12 4 2.656 8.352 6.656 12.992 12 1.344 2.016 3.008 5.664 4.992 11.008 1.344 4 2.336 10.016 3.008 18.016 0.672 4.672 2.016 12.672 4 24l-140.992-69.024-171.008 85.984zM431.008 208.992c4.64-8.672 8-24.352 9.984-47.008 2.016-19.328-0.352-50.336-7.008-92.992 0-2.656 2.656-5.664 8-8.992 5.984-3.328 12-4.352 17.984-3.008 5.344 1.344 8.992 6.336 11.008 15.008 5.984 38.656 7.328 72.32 4 100.992-4 26.656-7.008 44-8.992 52-2.016 6.656-4 11.328-6.016 14.016l-35.968-19.008 7.008-11.008zM500 296l-212.992 119.008c-20 9.984-40.672 9.984-62.016 0l-212.992-119.008c-7.328-4.672-11.328-10.336-12-16.992 0.672-6.016 4.672-11.68 12-16.992l212.992-120c20-10.016 40.672-10.016 62.016 0l136.992 78.016-149.984 34.976c-2.016-1.344-8-2.016-18.016-2.016-13.984 0-25.344 2.656-33.984 8-8.704 4.672-13.376 11.328-14.016 20 0.64 8 5.312 15.008 14.016 20.992 9.312 5.344 20.64 8 33.984 8 22.656 0 38.016-5.984 46.016-17.984l157.984-52.992 40 23.008c7.328 4.64 11.328 10.304 12 16.992-0.672 5.984-4.672 11.648-12 16.992z" />
<glyph unicode="&#xe661;" d="M352 160h-128v64h128v53.952l128-85.952-128-85.952zM384 10.656c0-5.888-4.768-10.656-10.656-10.656h-330.656c-5.888 0-10.688 4.768-10.688 10.656v426.656c0 5.888 4.8 10.688 10.688 10.688h234.656c5.888 0 10.656-4.8 10.656-10.688v-74.656c0-5.856 4.768-10.656 10.656-10.656h74.688c5.888 0 10.656-4.8 10.656-10.656v-23.136l32-22.848v77.984c0 5.888-3.392 14.048-7.52 18.208l-80.928 80.864c-4.128 4.128-12.32 7.52-18.176 7.52l-298.72 0.064c-5.856 0-10.656-4.8-10.656-10.656v-490.656c0-5.92 4.8-10.688 10.656-10.688h394.656c5.92 0 10.688 4.768 10.688 10.656v108.192l-32-22.848v-53.344z" />
</font>
</defs>
</svg>
